<?xml version="1.0" encoding="UTF-8"?>
<svg version="1.1" xmlns="http://www.w3.org/2000/svg" width="512" height="512">
<path d="M0 0 C0.6761793 -0.00350607 1.3523586 -0.00701215 2.04902819 -0.01062447 C4.32527608 -0.01996252 6.60126948 -0.01500904 8.87752819 -0.01015663 C10.52178904 -0.01389169 12.16604811 -0.01849263 13.81030434 -0.02388728 C18.33700088 -0.03615065 22.86362369 -0.03585289 27.39033306 -0.03349853 C32.26911781 -0.0330912 37.14787866 -0.04412145 42.02665234 -0.05361366 C51.58833794 -0.070243 61.14999888 -0.07572408 70.71169773 -0.07683842 C78.48233241 -0.07778799 86.25295894 -0.08189374 94.02359104 -0.08823967 C116.04417678 -0.10585747 138.064743 -0.11507772 160.08533583 -0.11357872 C161.86690167 -0.11345885 161.86690167 -0.11345885 163.68445873 -0.11333656 C164.87361585 -0.1132548 166.06277296 -0.11317304 167.28796514 -0.1130888 C186.56296409 -0.11227578 205.83788491 -0.13141606 225.11286125 -0.1596133 C244.89389434 -0.188323 264.6748893 -0.20215464 284.45594376 -0.20042574 C295.56566553 -0.19976117 306.6753054 -0.20528281 317.78500843 -0.22678185 C327.24381561 -0.24496849 336.70250378 -0.24936172 346.16132084 -0.235763 C350.98850934 -0.22922058 355.81546936 -0.22916201 360.6426363 -0.2464695 C365.06117639 -0.2621491 369.47930587 -0.25938912 373.89783563 -0.24190123 C375.49675513 -0.23882003 377.09570488 -0.24250577 378.6945887 -0.25362138 C394.26682527 -0.35471572 394.26682527 -0.35471572 401.0382185 5.85492516 C405.01937529 11.00297273 405.44268545 14.72368992 405.43025208 21.04072762 C405.43260431 21.84575785 405.43495654 22.65078808 405.43738005 23.48021317 C405.44408206 26.20073191 405.44361146 28.92120303 405.44320202 31.64172935 C405.44649989 33.60273539 405.45022529 35.56374074 405.4543435 37.52474523 C405.46438023 42.93160304 405.46808297 48.33844974 405.47073281 53.74531555 C405.47463086 59.56958681 405.48420948 65.39384923 405.49294567 71.21811485 C405.51272334 85.29191658 405.52277755 99.36571905 405.53167346 113.43953121 C405.53605388 120.06234336 405.5414213 126.68515471 405.54666233 133.30796623 C405.56367526 155.31499502 405.57819553 177.32202333 405.58541107 199.32905769 C405.58588583 200.75250886 405.58636172 202.17596003 405.58683873 203.5994112 C405.58707511 204.30532204 405.58731149 205.01123288 405.58755503 205.73853496 C405.58875624 209.31509211 405.58997168 212.89164926 405.59119701 216.46820641 C405.59143716 217.17798756 405.59167731 217.8877687 405.59192474 218.61905837 C405.5998194 241.63696672 405.62325465 264.65482357 405.65575296 287.67270943 C405.69004035 312.00213274 405.70976117 336.33152591 405.71305531 360.66097379 C405.71512966 373.92587914 405.72401362 387.19071197 405.74951649 400.45559502 C405.77118005 411.74979506 405.77929531 423.04390102 405.76954971 434.33811948 C405.76499252 440.10298963 405.76697356 445.86766549 405.78631115 451.63250923 C405.80385419 456.9078061 405.80301735 462.18276565 405.78741386 467.45806566 C405.78502428 469.36858994 405.78943072 471.27913704 405.80124251 473.18962631 C405.81628954 475.78364497 405.80673922 478.37645731 405.79101562 480.97044563 C405.80123783 481.71486742 405.81146004 482.45928922 405.82199201 483.22626925 C405.74082134 489.3479943 403.82874223 493.4954371 399.69837475 497.99945641 C394.8438785 501.75360017 391.76890696 502.38259522 385.71790314 502.39428329 C385.04317728 502.39693512 384.36845141 502.39958695 383.67327932 502.40231913 C381.39601148 502.41002265 379.11879746 502.41057171 376.84151745 502.41116905 C375.19883342 502.41518298 373.55615038 502.41962108 371.91346854 502.42444861 C367.38646426 502.43642768 362.85947064 502.44206564 358.33245361 502.44662976 C353.45500002 502.45258076 348.57755922 502.46419182 343.70011425 502.47492027 C331.91479946 502.49945509 320.12948043 502.51407264 308.34414795 502.52698034 C305.01654766 502.53069137 301.68894779 502.53466467 298.36134791 502.53873301 C277.70580761 502.56396767 257.05026667 502.58602491 236.39471436 502.59846115 C231.60913433 502.60139094 226.82355433 502.60435259 222.03797436 502.60736656 C220.2537839 502.60848564 220.2537839 502.60848564 218.43354919 502.60962732 C199.15915072 502.62228462 179.88484442 502.65551219 160.61048905 502.69716839 C140.83061776 502.73956741 121.05079368 502.7631538 101.27087706 502.76838171 C90.16163809 502.77179804 79.05254318 502.78357947 67.94334888 502.81648445 C58.48343935 502.84445811 49.02370341 502.85549605 39.56375573 502.84428899 C34.73639486 502.83909557 29.90939767 502.84203356 25.08208942 502.86675453 C20.6621587 502.88920055 16.24285388 502.88854349 11.82291254 502.86955066 C10.22461155 502.86674412 8.62626853 502.87238552 7.02803526 502.8873636 C-8.50021751 503.0239821 -8.50021751 503.0239821 -14.703969 497.25726891 C-19.94168517 491.74388346 -21.00245171 486.73065622 -20.96123791 479.29297733 C-20.96474398 478.4926925 -20.96825006 477.69240768 -20.97186238 476.86787179 C-20.98119591 474.17547378 -20.97624802 471.48329114 -20.97139454 468.79088402 C-20.97512981 466.84536271 -20.97973084 464.89984291 -20.98512518 462.9543255 C-20.99738577 457.59950718 -20.99709112 452.24475119 -20.99473643 446.88992202 C-20.99432904 441.11815032 -21.00535999 435.34639881 -21.01485157 429.57463646 C-21.03147922 418.26347251 -21.03696191 406.9523294 -21.03807633 395.64115425 C-21.03902595 386.44892769 -21.04313194 377.25670802 -21.04947758 368.06448364 C-21.06422696 346.25553427 -21.07652679 324.44659027 -21.07548046 302.63763523 C-21.0754493 301.94005702 -21.07541815 301.2424788 -21.07538604 300.52376185 C-21.07521983 296.98808842 -21.07502175 293.452415 -21.07481663 289.91674157 C-21.07477674 289.21453533 -21.07473685 288.51232908 -21.07469575 287.78884386 C-21.07461487 286.36881143 -21.07453128 284.94877899 -21.07444497 283.52874655 C-21.07321941 261.43456558 -21.08823287 239.34044599 -21.1155901 217.24628258 C-21.14630816 192.42757492 -21.16349742 167.6089079 -21.16166365 142.79018003 C-21.16099905 129.64767788 -21.16652205 116.50524495 -21.18801975 103.36275864 C-21.2062046 92.17366584 -21.21060105 80.98467364 -21.19700091 69.79557248 C-21.19045771 64.08524983 -21.1904029 58.37512034 -21.20770741 52.6648159 C-21.22338325 47.43826705 -21.22063063 42.21206539 -21.20313914 36.98552529 C-21.20005714 35.09388794 -21.20374657 33.20222504 -21.21485929 31.31061783 C-21.22896358 28.7396858 -21.21840781 26.16997443 -21.20174694 23.5990839 C-21.21665148 22.49687535 -21.21665148 22.49687535 -21.23185712 21.37239996 C-21.15025817 15.41866815 -19.40907244 10.12322437 -15.2566947 5.72393615 C-10.17039059 1.32900172 -6.6816967 0.00780069 0 0 Z " fill="#E5EAF1" transform="translate(63.70396900177002,4.742731094360352)"/>
<path d="M0 0 C0 165.66 0 331.32 0 502 C-153 502 -153 502 -161 497 C-166.23771617 491.48661456 -167.29848271 486.47338731 -167.25726891 479.03570843 C-167.26077498 478.2354236 -167.26428105 477.43513877 -167.26789337 476.61060289 C-167.27722691 473.91820487 -167.27227902 471.22602224 -167.26742554 468.53361511 C-167.27116081 466.58809381 -167.27576184 464.642574 -167.28115618 462.69705659 C-167.29341676 457.34223827 -167.29312212 451.98748228 -167.29076743 446.63265312 C-167.29036004 440.86088141 -167.30139099 435.0891299 -167.31088257 429.31736755 C-167.32751022 418.0062036 -167.33299291 406.69506049 -167.33410732 395.38388535 C-167.33505695 386.19165879 -167.33916294 376.99943912 -167.34550858 367.80721474 C-167.36025795 345.99826537 -167.37255779 324.18932136 -167.37151146 302.38036633 C-167.3714803 301.68278811 -167.37144914 300.9852099 -167.37141704 300.26649295 C-167.37125083 296.73081952 -167.37105274 293.19514609 -167.37084763 289.65947267 C-167.37080774 288.95726642 -167.37076785 288.25506018 -167.37072675 287.53157496 C-167.37064587 286.11154252 -167.37056228 284.69151008 -167.37047596 283.27147765 C-167.36925041 261.17729667 -167.38426387 239.08317708 -167.41162109 216.98901367 C-167.44233916 192.17030601 -167.45952842 167.351639 -167.45769465 142.53291112 C-167.45703005 129.39040897 -167.46255304 116.24797604 -167.48405075 103.10548973 C-167.5022356 91.91639693 -167.50663205 80.72740473 -167.4930319 69.53830358 C-167.48648871 63.82798093 -167.48643389 58.11785143 -167.5037384 52.407547 C-167.51941424 47.18099815 -167.51666163 41.95479648 -167.49917014 36.72825638 C-167.49608814 34.83661904 -167.49977757 32.94495613 -167.51089029 31.05334892 C-167.52499458 28.48241689 -167.51443881 25.91270552 -167.49777794 23.34181499 C-167.51268248 22.23960644 -167.51268248 22.23960644 -167.52788812 21.11513105 C-167.44628917 15.16139924 -165.70510344 9.86595547 -161.5527257 5.46666725 C-120.78258559 -29.76168105 -53.88173019 0 0 0 Z " fill="#FE526E" transform="translate(210,5)"/>
<path d="M0 0 C0.74958984 0.00451172 1.49917969 0.00902344 2.27148438 0.01367188 C4.11852383 0.02543646 5.96552213 0.04337135 7.8125 0.0625 C7.8125 0.7225 7.8125 1.3825 7.8125 2.0625 C6.203125 3.578125 6.203125 3.578125 4.0625 5.3125 C-3.16243366 11.51804267 -6.27022646 18.34247429 -7.546875 27.6953125 C-8.02090777 36.72827027 -5.05750261 45.82749663 0.5 53 C6.57621106 59.34520998 14.24937629 63.14680776 22.96923828 63.35522461 C34.6598318 63.45132143 42.39027095 61.86901812 51.21875 53.74609375 C53.43073422 51.40941434 54.74557078 49.74852446 55.0625 46.5 C55.05317222 43.88232462 55.05317222 43.88232462 52.8125 42.0625 C50.36563978 41.58310854 50.36563978 41.58310854 47.8125 42.0625 C46.01818525 43.6576544 46.01818525 43.6576544 44.5625 45.8125 C40.12190355 51.19851375 35.80707226 53.44711995 28.921875 54.5078125 C21.20158348 54.96311174 15.65453184 53.16779248 9.8125 48.0625 C4.74040045 41.98837671 2.4160177 36.73744162 2.54296875 28.8203125 C3.32324637 20.83660241 6.61037354 15.48612745 12.71484375 10.4375 C19.01895053 6.30519909 25.4751972 6.2105383 32.8125 7.0625 C37.62620893 8.76559585 40.98760102 11.19923363 44.5 14.875 C46.68157668 17.37639088 46.68157668 17.37639088 50.0625 17.4375 C52.71895094 17.35774348 52.71895094 17.35774348 53.8125 16.0625 C54.48416707 13.31946104 54.48416707 13.31946104 53.8125 10.0625 C51.31414014 6.85125735 48.4743133 3.89340665 44.8125 2.0625 C44.8125 1.4025 44.8125 0.7425 44.8125 0.0625 C54.84414631 -0.05359239 64.87563157 -0.14231581 74.90781403 -0.19656086 C79.56671457 -0.22260219 84.22515391 -0.25789962 88.88378906 -0.31469727 C93.38366702 -0.36921307 97.8831027 -0.3989616 102.38328552 -0.41188622 C104.09605365 -0.42109113 105.80879885 -0.43906637 107.52137756 -0.46615028 C123.66815652 -0.71124141 123.66815652 -0.71124141 129.39685059 3.49763489 C133.40822218 7.93182276 134.25056755 11.76285876 134.20018005 17.60874939 C134.20825836 18.73586794 134.20825836 18.73586794 134.21649987 19.88575655 C134.23078728 22.39918419 134.22367395 24.91208574 134.21655273 27.42553711 C134.2222559 29.22932865 134.22921995 31.03311657 134.23735046 32.8368988 C134.2553029 37.73359562 134.25410956 42.63011344 134.24840808 47.5268333 C134.24531925 51.61489675 134.25140528 55.70292567 134.25744683 59.79098421 C134.27149729 69.43514821 134.26992641 79.07922364 134.25854492 88.72338867 C134.24706284 98.67264741 134.26113974 108.62163663 134.2879414 118.57085985 C134.31009276 127.1136782 134.31673705 135.65641192 134.31086498 144.19925696 C134.3074929 149.30120234 134.30992722 154.40297493 134.32711601 159.50489616 C134.34257405 164.3025543 134.33864226 169.09981293 134.31981087 173.89745522 C134.31612183 175.65746356 134.31924262 177.41750144 134.32969666 179.1774826 C134.3428872 181.58187184 134.33137745 183.98493467 134.31370544 186.38926697 C134.32811295 187.43183723 134.32811295 187.43183723 134.34281152 188.49546951 C134.26767796 193.4700889 132.80703368 196.16815883 129.8125 200.0625 C129.12978027 201.16053955 128.44706055 202.2585791 127.74365234 203.38989258 C120.40654659 214.83469456 110.91574365 226.78134144 97.08905029 229.90319824 C79.85134593 232.60555015 61.70746943 231.5019265 44.36058044 230.42367554 C42.51787315 230.31486557 42.51787315 230.31486557 40.63793945 230.20385742 C39.55736771 230.12971115 38.47679596 230.05556488 37.36347961 229.97917175 C34.64214296 229.77709413 34.64214296 229.77709413 32.8125 232.0625 C32.47916667 234.5625 32.47916667 234.5625 32.8125 237.0625 C35.38535802 239.63535802 36.41813737 239.33141587 39.99658203 239.38134766 C41.61803635 239.41115219 41.61803635 239.41115219 43.27224731 239.44155884 C44.44310883 239.45311005 45.61397034 239.46466125 46.8203125 239.4765625 C48.01606903 239.49592865 49.21182556 239.5152948 50.44381714 239.5352478 C54.27497148 239.59517944 58.10615565 239.6414836 61.9375 239.6875 C64.52996125 239.72566724 67.12240966 239.76471821 69.71484375 239.8046875 C76.08061537 239.9008921 82.44646395 239.98589961 88.8125 240.0625 C88.41708008 240.5171463 88.02166016 240.9717926 87.61425781 241.44021606 C84.80303628 244.69230093 82.10278372 247.95935912 79.5625 251.4296875 C74.16449381 258.15779638 69.14486648 264.02485319 60.16094971 265.1505127 C52.98700015 265.73731323 45.81216117 265.49968369 38.63720703 265.01342773 C35.60344094 264.81175435 35.60344094 264.81175435 32.8125 267.0625 C33.1425 269.7025 33.4725 272.3425 33.8125 275.0625 C26.2225 275.0625 18.6325 275.0625 10.8125 275.0625 C11.1425 272.4225 11.4725 269.7825 11.8125 267.0625 C10.59821012 265.61861429 10.59821012 265.61861429 6.99609375 265.96484375 C5.41403318 265.97151911 3.83198841 265.98348125 2.25 266 C1.44369141 266.00451172 0.63738281 266.00902344 -0.19335938 266.01367188 C-2.19143756 266.02549482 -4.18947783 266.04343086 -6.1875 266.0625 C-7.12130961 270.59390653 -7.12130961 270.59390653 -6.1875 275.0625 C-11.06202354 274.60905595 -13.75124937 273.59162227 -17.1875 270.0625 C-20.3450681 264.21231754 -20.61464325 259.30429613 -20.56845093 252.73216248 C-20.5731309 251.70544325 -20.57781087 250.67872403 -20.58263266 249.62089211 C-20.59457847 246.18780302 -20.5851268 242.75511339 -20.57568359 239.32202148 C-20.57974944 236.85784675 -20.58509139 234.39367385 -20.59161377 231.92950439 C-20.603871 225.9359244 -20.6020802 219.94250062 -20.59337585 213.94892674 C-20.58659446 209.07737733 -20.58568454 204.2058595 -20.5889473 199.33430672 C-20.589407 198.64037181 -20.58986669 197.94643691 -20.59034032 197.23147367 C-20.59129952 195.82167179 -20.59227216 194.41186992 -20.5932581 193.00206805 C-20.60180746 179.79046418 -20.59198466 166.57892281 -20.575857 153.36732919 C-20.56245125 142.03464977 -20.56478488 130.70206253 -20.57861328 119.36938477 C-20.59467201 106.20277787 -20.60098665 93.03622569 -20.59177649 79.86961037 C-20.59082086 78.46536609 -20.58987775 77.06112181 -20.5889473 75.65687752 C-20.58848447 74.96599503 -20.58802164 74.27511254 -20.58754479 73.56329421 C-20.584956 68.69788281 -20.58932344 63.83250616 -20.59638596 58.96710014 C-20.60568377 52.41796676 -20.5990533 45.86898059 -20.58170319 39.31985474 C-20.57773274 36.91482393 -20.57888187 34.50977849 -20.58549118 32.10475349 C-20.59367434 28.82492151 -20.58342358 25.54565005 -20.56845093 22.26585388 C-20.57514309 21.31147775 -20.58183526 20.35710161 -20.58873022 19.37380499 C-20.53627633 13.46035892 -19.84079792 8.97145423 -15.6875 4.41796875 C-10.36297345 0.27204834 -6.55738771 -0.07445069 0 0 Z " fill="#FEFEFE" transform="translate(251.1875,36.9375)"/>
<path d="M0 0 C4.18726294 -0.11679952 8.37410301 -0.18745327 12.5625 -0.25 C14.33463867 -0.30027344 14.33463867 -0.30027344 16.14257812 -0.3515625 C24.09526657 -0.44066825 28.75997685 0.11172765 34.7421875 5.59765625 C38.72334429 10.74570383 39.14665445 14.46642102 39.13422108 20.78345871 C39.13657331 21.58848894 39.13892554 22.39351917 39.14134905 23.22294426 C39.14805106 25.94346301 39.14758046 28.66393413 39.14717102 31.38446045 C39.15046889 33.34546648 39.15419429 35.30647184 39.1583125 37.26747632 C39.16834924 42.67433413 39.17205197 48.08118084 39.17470181 53.48804665 C39.17859986 59.3123179 39.18817848 65.13658032 39.19691467 70.96084595 C39.21669234 85.03464768 39.22674656 99.10845014 39.23564246 113.1822623 C39.24002289 119.80507446 39.2453903 126.42788581 39.25063133 133.05069733 C39.26764426 155.05772612 39.28216453 177.06475442 39.28938007 199.07178879 C39.28985483 200.49523996 39.29033072 201.91869113 39.29080774 203.3421423 C39.29104411 204.04805314 39.29128049 204.75396397 39.29152403 205.48126605 C39.29272524 209.0578232 39.29394068 212.63438035 39.29516602 216.2109375 C39.29552624 217.27560922 39.29552624 217.27560922 39.29589374 218.36178947 C39.30378841 241.37969782 39.32722365 264.39755467 39.35972196 287.41544053 C39.39400935 311.74486384 39.41373017 336.07425701 39.41702431 360.40370488 C39.41909866 373.66861024 39.42798262 386.93344307 39.45348549 400.19832611 C39.47514905 411.49252615 39.48326431 422.78663211 39.47351871 434.08085057 C39.46896152 439.84572073 39.47094256 445.61039658 39.49028015 451.37524033 C39.5078232 456.65053719 39.50698635 461.92549675 39.49138286 467.20079675 C39.48899329 469.11132104 39.49339972 471.02186814 39.50521151 472.9323574 C39.52025855 475.52637607 39.51070822 478.1191884 39.49498463 480.71317673 C39.50520683 481.45759852 39.51542904 482.20202031 39.52596101 482.96900034 C39.44479035 489.09072539 37.53271123 493.23816819 33.40234375 497.7421875 C28.81602037 501.28894425 25.88763785 502.12522858 20.17243958 502.12025452 C18.9566774 502.12162918 17.74091522 502.12300385 16.48831177 502.12442017 C15.13909888 502.12088104 13.78988623 502.11724624 12.44067383 502.11352539 C11.02153017 502.11324335 9.60238637 502.11340158 8.1832428 502.1139679 C4.32815875 502.11425522 0.47310571 502.10836894 -3.38197112 502.10139394 C-7.40986331 502.09514963 -11.43775618 502.09455575 -15.46565247 502.09336853 C-23.09415878 502.0902584 -30.7226508 502.08204928 -38.35115081 502.07201904 C-47.03545463 502.06084805 -55.71975913 502.05534496 -64.40406835 502.05032361 C-82.26938701 502.03986642 -100.13469236 502.02227311 -118 502 C-115.35261084 500.5393715 -114.10551666 500 -111 500 C-111.01110306 498.96540649 -111.02220612 497.93081299 -111.03364563 496.86486816 C-111.13517831 487.09593828 -111.21004046 477.327116 -111.25906086 467.5577774 C-111.28511052 462.5356897 -111.32042382 457.51402931 -111.37719727 452.4921875 C-111.43168241 447.64218469 -111.46145536 442.79259186 -111.47438622 437.94230652 C-111.48359653 436.09557139 -111.50158234 434.24885769 -111.52865028 432.40229797 C-111.56516099 429.80742608 -111.56993632 427.21422967 -111.56762695 424.61914062 C-111.58560333 423.8624408 -111.60357971 423.10574097 -111.62210083 422.32611084 C-111.56633643 416.5025918 -109.67087545 412.50553612 -106 408 C-83.12656285 389.79461125 -19.35801821 403 -14 403 C-13.67 325.12 -13.34 247.24 -13 167 C-3.76 167 5.48 167 15 167 C14.93713497 147.15479645 14.86196694 127.30976449 14.76428509 107.46470451 C14.71932475 98.25024433 14.67991062 89.03582282 14.65356445 79.82128906 C14.63058632 71.78964395 14.59719034 63.75812119 14.55129844 55.72657311 C14.52736372 51.47414913 14.50863658 47.22184634 14.50238609 42.96935654 C14.49633635 38.9654517 14.47634063 34.96185696 14.44572449 30.95806694 C14.43694248 29.48995683 14.43322203 28.02180619 14.43499184 26.55367088 C14.43664787 24.54574448 14.41815798 22.53783185 14.39872742 20.52999878 C14.39181397 18.845883 14.39181397 18.845883 14.38476086 17.12774467 C13.63421748 11.02653142 10.64147943 6.88588975 6 3 C2.83298577 1.66436389 2.83298577 1.66436389 0 1 C0 0.67 0 0.34 0 0 Z " fill="#BDC9D9" transform="translate(430,5)"/>
<path d="M0 0 C1.65148544 0.0001133 1.65148544 0.0001133 3.33633423 0.00022888 C4.52906952 0.00539017 5.72180481 0.01055145 6.95068359 0.01586914 C8.16863617 0.01728409 9.38658875 0.01869904 10.64144897 0.02015686 C14.54403099 0.025769 18.44655632 0.0383236 22.34912109 0.05102539 C24.98974527 0.05603882 27.63037034 0.060602 30.27099609 0.06469727 C36.75539054 0.07574238 43.23975177 0.09249237 49.72412109 0.11352539 C48.93102539 0.73984863 48.13792969 1.36617188 47.32080078 2.01147461 C43.08827227 5.43776931 39.03693558 9.32522832 38.40771484 14.93383789 C38.32650391 16.02438477 38.24529297 17.11493164 38.16162109 18.23852539 C38.07783203 19.33422852 37.99404297 20.42993164 37.90771484 21.55883789 C37.81683594 22.8234082 37.81683594 22.8234082 37.72412109 24.11352539 C37.11415283 24.12810791 36.50418457 24.14269043 35.87573242 24.15771484 C33.09541045 24.23247314 30.31625286 24.32904021 27.53662109 24.42602539 C26.09706055 24.45986328 26.09706055 24.45986328 24.62841797 24.49438477 C17.66798395 24.71189226 17.66798395 24.71189226 11.72412109 28.11352539 C9.56820731 31.34739607 9.47562818 32.19158017 9.48361206 35.9160614 C9.48086273 36.90464142 9.4781134 37.89322144 9.47528076 38.91175842 C9.48247131 39.995009 9.48966187 41.07825958 9.49707031 42.19433594 C9.49677826 43.33594177 9.49648621 44.47754761 9.4961853 45.65374756 C9.49758125 49.43598978 9.51315513 53.21803623 9.52880859 57.00024414 C9.53253778 59.61912427 9.53538519 62.23800579 9.53738403 64.85688782 C9.54360206 71.05107446 9.56001721 77.24519056 9.58008301 83.43934613 C9.60243199 90.49126676 9.61343292 97.54319074 9.62347388 104.59513795 C9.64438318 119.1013035 9.67956542 133.60741346 9.72412109 148.11352539 C10.31833862 146.99530396 10.31833862 146.99530396 10.92456055 145.85449219 C11.71672974 144.3797644 11.71672974 144.3797644 12.52490234 142.87524414 C13.30474487 141.41671021 13.30474487 141.41671021 14.1003418 139.92871094 C21.21674429 127.59083135 35.02139973 118.11374917 48.62255859 114.30102539 C64.87287321 111.16423544 81.62169845 112.68289691 96.03271484 121.23071289 C105.31996435 127.72774375 112.33254228 135.08708058 117.72412109 145.11352539 C118.08248047 145.72711914 118.44083984 146.34071289 118.81005859 146.97290039 C121.42038525 152.0019701 121.61836941 157.61555428 120.72412109 163.11352539 C118.77015706 167.02145345 115.79407906 169.57578848 111.72412109 171.11352539 C108.43377686 171.35403442 108.43377686 171.35403442 104.47705078 171.34057617 C103.75470245 171.34086823 103.03235413 171.34116028 102.28811646 171.34146118 C99.90728627 171.34007101 97.52677142 171.32452473 95.14599609 171.30883789 C93.49261649 171.30510665 91.83923466 171.3022602 90.18585205 171.30026245 C85.83913035 171.29263477 81.49254281 171.27299372 77.14587402 171.25085449 C72.70843317 171.23037743 68.2709706 171.22125676 63.83349609 171.21118164 C55.13030274 171.18974698 46.42724407 171.1545719 37.72412109 171.11352539 C37.72412109 181.67352539 37.72412109 192.23352539 37.72412109 203.11352539 C21.84912109 203.48852539 21.84912109 203.48852539 16.84179688 203.59155273 C14.90022705 203.64496826 14.90022705 203.64496826 12.91943359 203.69946289 C11.89837524 203.71650269 11.89837524 203.71650269 10.85668945 203.73388672 C6.8447193 203.75954474 6.8447193 203.75954474 3.72412109 206.11352539 C3.88854386 209.1834422 3.88854386 209.1834422 4.72412109 212.11352539 C7.67696829 213.58994899 10.40861093 213.33625478 13.70068359 213.42993164 C14.72855484 213.46110329 14.72855484 213.46110329 15.77719116 213.49290466 C17.96773179 213.55832724 20.15839298 213.61725093 22.34912109 213.67602539 C23.8335086 213.71921757 25.31788388 213.76283209 26.80224609 213.80688477 C30.44274927 213.91479677 34.08334304 214.0139232 37.72412109 214.11352539 C37.72412109 219.39352539 37.72412109 224.67352539 37.72412109 230.11352539 C34.29392578 230.18700195 34.29392578 230.18700195 30.79443359 230.26196289 C28.58359135 230.3159483 26.37285892 230.37326524 24.16210938 230.4309082 C22.62378088 230.4692284 21.08536185 230.50407595 19.546875 230.53540039 C17.33739833 230.58098598 15.12854661 230.63898879 12.91943359 230.69946289 C11.88497604 230.7167897 11.88497604 230.7167897 10.82962036 230.73446655 C6.83210569 230.76303561 6.83210569 230.76303561 3.72412109 233.11352539 C3.39078776 235.61352539 3.39078776 235.61352539 3.72412109 238.11352539 C6.51624621 240.90565051 9.17716398 240.46490615 12.91943359 240.52758789 C13.62687714 240.54695404 14.33432068 240.56632019 15.0632019 240.58627319 C17.32505194 240.64610191 19.58695279 240.6924664 21.84912109 240.73852539 C23.38169549 240.77670225 24.91424838 240.81575381 26.44677734 240.85571289 C30.20578057 240.95345512 33.96455177 241.03299347 37.72412109 241.11352539 C37.72412109 246.72352539 37.72412109 252.33352539 37.72412109 258.11352539 C35.43732422 258.16250977 33.15052734 258.21149414 30.79443359 258.26196289 C28.58359135 258.3159483 26.37285892 258.37326524 24.16210938 258.4309082 C22.62378088 258.4692284 21.08536185 258.50407595 19.546875 258.53540039 C17.33739833 258.58098598 15.12854661 258.63898879 12.91943359 258.69946289 C11.88497604 258.7167897 11.88497604 258.7167897 10.82962036 258.73446655 C6.83210569 258.76303561 6.83210569 258.76303561 3.72412109 261.11352539 C3.88854386 264.1834422 3.88854386 264.1834422 4.72412109 267.11352539 C7.67696829 268.58994899 10.40861093 268.33625478 13.70068359 268.42993164 C14.95445801 268.46803955 16.20823242 268.50614746 17.5 268.54541016 C19.10020996 268.58851318 20.70041992 268.63161621 22.34912109 268.67602539 C27.42287109 268.82040039 32.49662109 268.96477539 37.72412109 269.11352539 C37.72412109 282.97352539 37.72412109 296.83352539 37.72412109 311.11352539 C26.53662109 311.36352539 26.53662109 311.36352539 23.03588867 311.41137695 C18.84534116 311.55060997 15.428909 311.82696328 11.52490234 313.41430664 C8.49691621 317.95300169 9.00461859 322.73053454 9.09912109 328.05102539 C9.07978516 329.13577148 9.06044922 330.22051758 9.04052734 331.33813477 C9.06919193 336.0018623 9.21678637 339.21110787 11.52490234 343.31665039 C16.40153569 346.05566302 21.0348626 345.89417896 26.53662109 345.92602539 C32.07443359 346.01883789 32.07443359 346.01883789 37.72412109 346.11352539 C37.72412109 355.02352539 37.72412109 363.93352539 37.72412109 373.11352539 C27.03662109 373.42602539 27.03662109 373.42602539 23.6940918 373.50146484 C16.69775312 373.7009106 16.69775312 373.7009106 10.72412109 377.11352539 C8.6716167 381.21853418 9.45092275 386.47669483 9.41162109 390.98852539 C9.38261719 392.09067383 9.35361328 393.19282227 9.32373047 394.32836914 C9.31535156 395.38926758 9.30697266 396.45016602 9.29833984 397.54321289 C9.28375732 398.51500488 9.2691748 399.48679687 9.25415039 400.48803711 C9.87117244 403.93502679 10.90864564 405.06789496 13.72412109 407.11352539 C16.41650096 407.74989049 16.41650096 407.74989049 19.36474609 407.72290039 C20.32928711 407.75351562 21.29382813 407.78413086 22.28759766 407.81567383 C23.50415039 407.83146484 24.72070312 407.84725586 25.97412109 407.86352539 C29.85162109 407.94602539 33.72912109 408.02852539 37.72412109 408.11352539 C37.72412109 417.35352539 37.72412109 426.59352539 37.72412109 436.11352539 C25.91162109 436.55102539 25.91162109 436.55102539 22.19750977 436.68164062 C21.23047119 436.71974854 20.26343262 436.75785645 19.26708984 436.79711914 C18.27733154 436.83377686 17.28757324 436.87043457 16.26782227 436.90820312 C13.60228599 437.0214287 13.60228599 437.0214287 10.72412109 438.11352539 C9.10320506 442.9762735 9.45631921 447.95842045 9.41162109 453.05102539 C9.38261719 454.14866211 9.35361328 455.24629883 9.32373047 456.37719727 C9.31535156 457.43358398 9.30697266 458.4899707 9.29833984 459.57836914 C9.28375732 460.54379639 9.2691748 461.50922363 9.25415039 462.50390625 C9.87289257 465.9396128 10.91874454 467.0725823 13.72412109 469.11352539 C16.41650096 469.74989049 16.41650096 469.74989049 19.36474609 469.72290039 C20.96962891 469.77124023 20.96962891 469.77124023 22.60693359 469.82055664 C23.71810547 469.83473633 24.82927734 469.84891602 25.97412109 469.86352539 C27.10076172 469.89317383 28.22740234 469.92282227 29.38818359 469.95336914 C32.1669013 470.02401451 34.94478258 470.07673816 37.72412109 470.11352539 C37.76279297 471.95817383 37.76279297 471.95817383 37.80224609 473.84008789 C37.85855116 475.47293471 37.91589795 477.10574584 37.97412109 478.73852539 C37.98830078 479.54676758 38.00248047 480.35500977 38.01708984 481.18774414 C38.28845154 487.86324184 40.1599624 491.74660967 45.16162109 496.36352539 C47.63206853 498.05066023 49.90246688 499.14610109 52.72412109 500.11352539 C52.72412109 500.44352539 52.72412109 500.77352539 52.72412109 501.11352539 C44.89552204 501.24063924 37.06719063 501.3280093 29.23779297 501.38818359 C26.57584093 501.41044749 23.91524265 501.4473518 21.25341797 501.49072266 C17.42056323 501.55159572 13.58862221 501.57978817 9.75537109 501.60180664 C8.57172974 501.62761307 7.38808838 501.65341949 6.1685791 501.68000793 C-0.96743653 501.68241294 -5.79608796 500.86301775 -11.27587891 496.11352539 C-16.51359508 490.60013995 -17.57436161 485.5869127 -17.53314781 478.14923382 C-17.53665389 477.34894899 -17.54015996 476.54866416 -17.54377228 475.72412828 C-17.55310582 473.03173027 -17.54815793 470.33954763 -17.54330444 467.6471405 C-17.54703972 465.7016192 -17.55164074 463.75609939 -17.55703509 461.81058198 C-17.56929567 456.45576366 -17.56900102 451.10100767 -17.56664634 445.74617851 C-17.56623894 439.9744068 -17.5772699 434.20265529 -17.58676147 428.43089294 C-17.60338913 417.11972899 -17.60887182 405.80858588 -17.60998623 394.49741074 C-17.61093585 385.30518418 -17.61504185 376.11296451 -17.62138748 366.92074013 C-17.63613686 345.11179076 -17.6484367 323.30284675 -17.64739037 301.49389172 C-17.64735921 300.7963135 -17.64732805 300.09873529 -17.64729595 299.38001834 C-17.64712973 295.84434491 -17.64693165 292.30867148 -17.64672653 288.77299806 C-17.64668664 288.07079181 -17.64664675 287.36858557 -17.64660565 286.64510035 C-17.64652478 285.22506791 -17.64644118 283.80503547 -17.64635487 282.38500304 C-17.64512932 260.29082206 -17.66014278 238.19670247 -17.6875 216.10253906 C-17.71821806 191.2838314 -17.73540732 166.46516439 -17.73357356 141.64643651 C-17.73290895 128.50393436 -17.73843195 115.36150143 -17.75992966 102.21901512 C-17.7781145 91.02992232 -17.78251096 79.84093012 -17.76891081 68.65182897 C-17.76236761 62.94150632 -17.7623128 57.23137682 -17.77961731 51.52107239 C-17.79529315 46.29452354 -17.79254054 41.06832187 -17.77504905 35.84178177 C-17.77196704 33.95014443 -17.77565648 32.05848152 -17.7867692 30.16687431 C-17.80087348 27.59594228 -17.79031772 25.02623091 -17.77365685 22.45534039 C-17.78856138 21.35313183 -17.78856138 21.35313183 -17.80376703 20.22865644 C-17.72186969 14.25315403 -15.98455717 8.91259205 -11.75780382 4.54479225 C-7.63940701 1.03677205 -5.31016578 -0.01212367 0 0 Z " fill="#D12270" transform="translate(60.27587890625,5.886474609375)"/>
<path d="M0 0 C4.18726294 -0.11679952 8.37410301 -0.18745327 12.5625 -0.25 C14.33463867 -0.30027344 14.33463867 -0.30027344 16.14257812 -0.3515625 C24.09526657 -0.44066825 28.75997685 0.11172765 34.7421875 5.59765625 C38.72334429 10.74570383 39.14665445 14.46642102 39.13422108 20.78345871 C39.13657331 21.58848894 39.13892554 22.39351917 39.14134905 23.22294426 C39.14805106 25.94346301 39.14758046 28.66393413 39.14717102 31.38446045 C39.15046889 33.34546648 39.15419429 35.30647184 39.1583125 37.26747632 C39.16834924 42.67433413 39.17205197 48.08118084 39.17470181 53.48804665 C39.17859986 59.3123179 39.18817848 65.13658032 39.19691467 70.96084595 C39.21669234 85.03464768 39.22674656 99.10845014 39.23564246 113.1822623 C39.24002289 119.80507446 39.2453903 126.42788581 39.25063133 133.05069733 C39.26764426 155.05772612 39.28216453 177.06475442 39.28938007 199.07178879 C39.28985483 200.49523996 39.29033072 201.91869113 39.29080774 203.3421423 C39.29104411 204.04805314 39.29128049 204.75396397 39.29152403 205.48126605 C39.29272524 209.0578232 39.29394068 212.63438035 39.29516602 216.2109375 C39.29552624 217.27560922 39.29552624 217.27560922 39.29589374 218.36178947 C39.30378841 241.37969782 39.32722365 264.39755467 39.35972196 287.41544053 C39.39400935 311.74486384 39.41373017 336.07425701 39.41702431 360.40370488 C39.41909866 373.66861024 39.42798262 386.93344307 39.45348549 400.19832611 C39.47514905 411.49252615 39.48326431 422.78663211 39.47351871 434.08085057 C39.46896152 439.84572073 39.47094256 445.61039658 39.49028015 451.37524033 C39.5078232 456.65053719 39.50698635 461.92549675 39.49138286 467.20079675 C39.48899329 469.11132104 39.49339972 471.02186814 39.50521151 472.9323574 C39.52025855 475.52637607 39.51070822 478.1191884 39.49498463 480.71317673 C39.50520683 481.45759852 39.51542904 482.20202031 39.52596101 482.96900034 C39.44479035 489.09072539 37.53271123 493.23816819 33.40234375 497.7421875 C28.83798817 501.27195581 25.92853807 502.1265408 20.23828125 502.09765625 C19.12001953 502.09443359 18.00175781 502.09121094 16.84960938 502.08789062 C15.09874023 502.07532227 15.09874023 502.07532227 13.3125 502.0625 C12.13365234 502.05798828 10.95480469 502.05347656 9.74023438 502.04882812 C6.82677211 502.03703273 3.91341137 502.0205727 1 502 C1.59683594 501.55269531 2.19367188 501.10539062 2.80859375 500.64453125 C7.89458536 496.82777106 11.58860124 494.01011926 14 488 C14.27739289 485.21344692 14.40381372 482.65696531 14.37752342 479.87583923 C14.38406391 478.66771731 14.38406391 478.66771731 14.39073652 477.43518889 C14.40170121 474.73127994 14.39126512 472.02788 14.38095093 469.32397461 C14.38440701 467.3679144 14.38917123 465.41185614 14.39513266 463.45580196 C14.40767911 458.07654291 14.40145567 452.69744312 14.39217401 447.31818342 C14.38539879 441.51851785 14.39585716 435.71888006 14.40411377 429.91921997 C14.41746962 418.5560425 14.41456511 407.1929244 14.40587585 395.82974458 C14.39910699 386.59652356 14.39817912 377.36331922 14.4014473 368.13009644 C14.401907 366.81712048 14.40236669 365.50414453 14.40284032 364.15138143 C14.40355902 362.15291219 14.40427776 360.15444294 14.405021 358.1559737 C14.4141996 333.17819927 14.40587508 308.20045725 14.38973031 283.22268783 C14.37549331 261.02767296 14.37676719 238.83270973 14.39111328 216.63769531 C14.40717449 191.70583205 14.41354867 166.77399743 14.40427649 141.84212971 C14.40332082 139.184721 14.40237771 136.52731228 14.4014473 133.86990356 C14.40098447 132.5623295 14.40052164 131.25475543 14.40004479 129.9075579 C14.39745203 120.68298363 14.40183206 111.45842764 14.40888596 102.2338562 C14.41729052 90.99569678 14.41504278 79.75760024 14.39904372 68.51944804 C14.39114698 62.78307302 14.38809333 57.04680292 14.39799118 51.31042862 C14.40690948 46.06248106 14.40205253 40.81473602 14.38605852 35.56680691 C14.38269856 33.66514446 14.38443194 31.76346501 14.39168589 29.86181343 C14.40077302 27.28235063 14.39148782 24.70358675 14.37752342 22.12416077 C14.38454692 21.38117819 14.39157042 20.63819562 14.39880675 19.87269843 C14.33223772 13.74466829 12.58875085 9.88932534 8.6875 5.25 C5.83749804 2.86395185 3.57451604 1.91441108 0 1 C0 0.67 0 0.34 0 0 Z " fill="#737EC5" transform="translate(430,5)"/>
<path d="M0 0 C0.79761749 -0.00708481 1.59523499 -0.01416962 2.41702271 -0.02146912 C3.28310654 -0.0189917 4.14919037 -0.01651428 5.04151917 -0.01396179 C5.96066101 -0.01907272 6.87980286 -0.02418365 7.82679749 -0.02944946 C10.86531586 -0.04335022 13.90360754 -0.04238835 16.94215393 -0.04008484 C19.05438318 -0.04397143 21.16661166 -0.04830603 23.27883911 -0.05307007 C27.70643141 -0.06053327 32.13394397 -0.0602402 36.5615387 -0.05497742 C42.23557465 -0.04918198 47.90928427 -0.06611523 53.58326626 -0.08932209 C57.94557606 -0.10405314 62.30780714 -0.10493199 66.67013741 -0.10181236 C68.7621176 -0.10232587 70.85410218 -0.10756905 72.94605827 -0.11762428 C75.87132356 -0.12995932 78.7959516 -0.12321452 81.72120667 -0.11161804 C82.58526627 -0.11926178 83.44932587 -0.12690552 84.33956909 -0.13478088 C90.4786331 -0.08098365 93.5305217 1.18417436 98.23017883 5.22424316 C100.90281276 9.95378229 100.46972598 14.50313914 100.40016174 19.84394836 C100.40074585 21.01510696 100.40132996 22.18626556 100.40193176 23.39291382 C100.39914627 27.26190381 100.36803034 31.13012233 100.33668518 34.99897766 C100.32922445 37.68227442 100.32333397 40.36552852 100.3195343 43.04882812 C100.30711315 49.38825255 100.27430353 55.7274003 100.23413634 62.06670302 C100.18939156 69.28550584 100.16742484 76.50432203 100.1473546 83.72322905 C100.1055699 98.56920102 100.03523487 113.41493044 99.94606018 128.26069641 C98.19289147 125.63094334 96.85525266 123.07908137 95.44606018 120.26069641 C87.27937891 105.31151713 74.73095721 96.75298129 58.84840393 91.57710266 C44.07611221 87.57339743 27.59480335 89.91676505 14.34449768 97.21382141 C2.04512708 104.62171819 -5.86489161 113.9174296 -11.05393982 127.26069641 C-11.38393982 127.26069641 -11.71393982 127.26069641 -12.05393982 127.26069641 C-12.14740262 111.70104717 -12.21792847 96.14144888 -12.26118851 80.58158588 C-12.28180929 73.35677008 -12.30992036 66.13212874 -12.35569763 58.90742493 C-12.39558056 52.60997993 -12.42137616 46.31266129 -12.4302938 40.01509351 C-12.43550623 36.68083464 -12.44984692 33.34702133 -12.47686005 30.01285744 C-12.50582964 26.28966827 -12.50989834 22.56723181 -12.50804138 18.84394836 C-12.52242249 17.73983612 -12.53680359 16.63572388 -12.55162048 15.49815369 C-12.51137552 8.05780994 -12.51137552 8.05780994 -10.27555847 4.16174316 C-6.97674784 1.33893951 -4.35999086 0.01296456 0 0 Z " fill="#89D6FE" transform="translate(81.05393981933594,29.739303588867188)"/>
<path d="M0 0 C9.24 0 18.48 0 28 0 C28.11302677 40.75730071 28.20254528 81.51456023 28.25532665 122.27198613 C28.2615802 127.08350534 28.26805181 131.89502423 28.2746582 136.70654297 C28.27596976 137.66443183 28.27728131 138.62232069 28.2786326 139.60923648 C28.30039058 155.12031138 28.33981429 170.63129365 28.38576398 186.1423136 C28.43251767 202.0574411 28.4602931 217.97252008 28.47044247 233.88771343 C28.47730389 243.70869136 28.49897679 253.52940745 28.53958233 263.35030478 C28.56600726 270.08439628 28.57400156 276.81835238 28.56750689 283.55249196 C28.56430358 287.43812393 28.56922199 291.3232983 28.59602737 295.20884895 C28.62488975 299.42338598 28.61493727 303.63694909 28.60127258 307.8515625 C28.61583679 309.07725417 28.630401 310.30294584 28.64540654 311.56577969 C28.58306313 318.66792362 27.74360786 323.55058896 23 329 C17.95906865 333.67208271 14.35748758 335.25779534 7.484375 335.1953125 C6.23398437 335.18886719 4.98359375 335.18242187 3.6953125 335.17578125 C2.39335937 335.15902344 1.09140625 335.14226562 -0.25 335.125 C-1.56742187 335.11597656 -2.88484375 335.10695313 -4.2421875 335.09765625 C-7.49497462 335.07408533 -10.74739589 335.04118022 -14 335 C-12.01902074 333.67934716 -10.01894894 332.38684309 -8 331.125 C-3.21024195 327.73225471 -1.48712395 324.64370327 0 319 C0.28101372 315.33984726 0.25622918 311.69274616 0.23046875 308.0234375 C0.23037308 306.95193451 0.2302774 305.88043152 0.23017883 304.77645874 C0.22646803 301.3091903 0.20758105 297.84220915 0.1875 294.375 C0.18066101 292.00813895 0.17415088 289.64127692 0.16796875 287.27441406 C0.10751814 271.16870424 -0.15384625 255.08592295 -1 239 C-2.485 239.99 -2.485 239.99 -4 241 C-2.125 236.25 -2.125 236.25 -1 234 C-0.89162411 230.95145773 -0.84507839 227.9251478 -0.84178162 224.87594604 C-0.83684364 223.91868594 -0.83190566 222.96142584 -0.82681805 221.97515786 C-0.81138395 218.74760055 -0.80306647 215.52006322 -0.79467773 212.29248047 C-0.78510385 209.98679425 -0.77509407 207.68110981 -0.76467896 205.37542725 C-0.73757073 199.09889765 -0.71659327 192.82236049 -0.69667697 186.5458045 C-0.67485383 179.99277196 -0.64744722 173.43976289 -0.62062073 166.88674927 C-0.57616356 155.8823556 -0.53550192 144.87795227 -0.49731445 133.87353516 C-0.45796706 122.53758809 -0.41654266 111.20165177 -0.37231445 99.86572266 C-0.36959018 99.16729114 -0.36686591 98.46885962 -0.36405908 97.74926351 C-0.35037973 94.24553197 -0.33665943 90.74180059 -0.32291877 87.2380693 C-0.20893072 58.15873541 -0.10239887 29.07937694 0 0 Z " fill="#B3C8E7" transform="translate(417,172)"/>
<path d="M0 0 C0.99 1.485 0.99 1.485 2 3 C2.8936664 4.18437716 3.81210863 5.35032671 4.75 6.5 C5.21921875 7.0878125 5.6884375 7.675625 6.171875 8.28125 C9.61092575 11.51454557 12.79137433 12.9108723 17.49609375 13.2578125 C18.79675781 13.21398437 20.09742188 13.17015625 21.4375 13.125 C32.32189214 12.87871892 43.12600498 13.47909006 54 14 C54 22.91 54 31.82 54 41 C43.3125 41.3125 43.3125 41.3125 39.9699707 41.38793945 C32.97363203 41.58738521 32.97363203 41.58738521 27 45 C24.94749561 49.10500878 25.72680166 54.36316944 25.6875 58.875 C25.64399414 60.52822266 25.64399414 60.52822266 25.59960938 62.21484375 C25.59123047 63.27574219 25.58285156 64.33664062 25.57421875 65.4296875 C25.55963623 66.40147949 25.54505371 67.37327148 25.5300293 68.37451172 C26.14705135 71.8215014 27.18452455 72.95436957 30 75 C32.69237987 75.6363651 32.69237987 75.6363651 35.640625 75.609375 C36.60516602 75.63999023 37.56970703 75.67060547 38.56347656 75.70214844 C40.38830566 75.72583496 40.38830566 75.72583496 42.25 75.75 C48.06625 75.87375 48.06625 75.87375 54 76 C54 85.24 54 94.48 54 104 C42.1875 104.4375 42.1875 104.4375 38.47338867 104.56811523 C37.5063501 104.60622314 36.53931152 104.64433105 35.54296875 104.68359375 C34.55321045 104.72025146 33.56345215 104.75690918 32.54370117 104.79467773 C29.8781649 104.90790331 29.8781649 104.90790331 27 106 C25.37908396 110.86274811 25.73219811 115.84489506 25.6875 120.9375 C25.64399414 122.58395508 25.64399414 122.58395508 25.59960938 124.26367188 C25.59123047 125.32005859 25.58285156 126.37644531 25.57421875 127.46484375 C25.55963623 128.430271 25.54505371 129.39569824 25.5300293 130.39038086 C26.14877147 133.82608741 27.19462345 134.95905691 30 137 C32.69237987 137.6363651 32.69237987 137.6363651 35.640625 137.609375 C37.24550781 137.65771484 37.24550781 137.65771484 38.8828125 137.70703125 C39.99398437 137.72121094 41.10515625 137.73539063 42.25 137.75 C43.37664062 137.77964844 44.50328125 137.80929687 45.6640625 137.83984375 C48.44278021 137.91048912 51.22066148 137.96321277 54 138 C54.02578125 139.22976563 54.0515625 140.45953125 54.078125 141.7265625 C54.13443006 143.35940932 54.19177685 144.99222045 54.25 146.625 C54.26417969 147.43324219 54.27835938 148.24148438 54.29296875 149.07421875 C54.56433045 155.74971645 56.4358413 159.63308428 61.4375 164.25 C63.90794744 165.93713484 66.17834578 167.0325757 69 168 C69 168.33 69 168.66 69 169 C61.17140095 169.12711385 53.34306953 169.21448391 45.51367188 169.2746582 C42.85171983 169.2969221 40.19112155 169.33382641 37.52929688 169.37719727 C33.69644214 169.43807033 29.86450112 169.46626278 26.03125 169.48828125 C24.84760864 169.51408768 23.66396729 169.5398941 22.44445801 169.56648254 C15.32650544 169.56888147 10.45110488 168.77102159 5 164 C0.82049614 159.39182908 -0.12516635 156.95859971 -0.12025452 150.79916382 C-0.12110894 150.15633725 -0.12196337 149.51351068 -0.12284368 148.85120451 C-0.12449658 146.68772167 -0.11898023 144.5243156 -0.11352539 142.36083984 C-0.11324345 140.8137665 -0.11340138 139.26669302 -0.1139679 137.71961975 C-0.11425561 133.51118307 -0.10836308 129.3027747 -0.10139394 125.09434462 C-0.09515607 120.69942333 -0.09455626 116.30450145 -0.09336853 111.90957642 C-0.0902565 103.58334283 -0.08204482 95.25712232 -0.07201904 86.93089449 C-0.06085394 77.45340024 -0.05534645 67.97590537 -0.05032361 58.49840617 C-0.03986211 38.99893002 -0.02226513 19.49946606 0 0 Z " fill="#A0126E" transform="translate(44,338)"/>
<path d="M0 0 C6.0117554 5.34928499 10.49096607 11.08805631 14.32080078 18.21020508 C14.67916016 18.82379883 15.03751953 19.43739258 15.40673828 20.06958008 C18.01706494 25.09864979 18.2150491 30.71223396 17.32080078 36.21020508 C15.34572932 40.16034799 12.36470314 42.53057885 8.32080078 44.21020508 C6.36171913 44.46747398 6.36171913 44.46747398 4.27359009 44.47763062 C3.07933159 44.49042557 3.07933159 44.49042557 1.86094666 44.503479 C0.56417747 44.50211945 0.56417747 44.50211945 -0.75878906 44.50073242 C-2.13509239 44.51080826 -2.13509239 44.51080826 -3.53919983 44.52108765 C-6.57290052 44.54008816 -9.60638022 44.54399288 -12.64013672 44.54614258 C-14.74997041 44.55256902 -16.8598032 44.55929727 -18.96963501 44.5663147 C-23.39302639 44.57829256 -27.81633964 44.58199499 -32.23974609 44.58081055 C-37.90479546 44.58060732 -43.56934338 44.60791135 -49.23427391 44.64235497 C-53.59233903 44.66460419 -57.9502831 44.66864869 -62.3083992 44.66759109 C-64.3967728 44.66994996 -66.48514959 44.67878949 -68.57346725 44.69425583 C-71.4962744 44.71387562 -74.41799527 44.70809333 -77.34082031 44.69604492 C-78.20128464 44.70728394 -79.06174896 44.71852295 -79.94828796 44.73010254 C-85.328093 44.6738162 -88.43024855 43.81677461 -92.67919922 40.21020508 C-95.97146634 35.2718044 -95.31820955 29.51802327 -94.21435547 23.80395508 C-92.45806687 17.90116262 -89.3161053 13.12797526 -85.67919922 8.21020508 C-84.59638672 6.69426758 -84.59638672 6.69426758 -83.49169922 5.14770508 C-62.47769303 -19.01170968 -23.83174699 -20.25956016 0 0 Z " fill="#3F3D6B" transform="translate(163.67919921875,132.789794921875)"/>
<path d="M0 0 C0.33 0 0.66 0 1 0 C1.87777641 17.56486615 2.18010373 35.14408423 2.28710938 52.72888184 C2.30397822 55.06821746 2.32785539 57.40751348 2.35888672 59.7467041 C2.40110464 63.08654492 2.41660192 66.42554963 2.42578125 69.765625 C2.44324905 70.764729 2.46071686 71.76383301 2.47871399 72.79321289 C2.45750203 79.76051012 1.36535567 86.21395214 -3.41215515 91.58868408 C-8.97200378 96.50508862 -14.08522402 97.29444499 -21.27856445 97.22705078 C-22.09859451 97.22734283 -22.91862457 97.22763489 -23.76350403 97.22793579 C-26.46353885 97.22654675 -29.16329486 97.21100567 -31.86328125 97.1953125 C-33.7394343 97.19158085 -35.6155893 97.1887346 -37.491745 97.18673706 C-42.42206228 97.17911254 -47.35226114 97.15947417 -52.28253174 97.1373291 C-57.31659341 97.11684524 -62.35067427 97.10772991 -67.38476562 97.09765625 C-77.25656236 97.07622719 -87.12827132 97.04210547 -97 97 C-96.02801414 96.271511 -96.02801414 96.271511 -95.03639221 95.52830505 C-90.92093667 92.10149905 -87.19781304 88.336789 -83.41772461 84.54711914 C-82.56510544 83.69625229 -81.71248627 82.84538544 -80.83403015 81.96873474 C-78.50579867 79.64414104 -76.17982023 77.3173229 -73.85499644 74.98932195 C-71.41602671 72.54781191 -68.97460831 70.1087524 -66.53358459 67.66929626 C-62.43554717 63.57307566 -58.339617 59.47475684 -54.24487305 55.37524414 C-49.51782384 50.64275325 -44.78718307 45.91387548 -40.05466074 41.18685824 C-35.98389473 37.12063723 -31.91508952 33.0524619 -27.84790236 28.98266119 C-25.42207847 26.55528216 -22.99559325 24.12857458 -20.56733513 21.70363045 C-17.86008933 18.99892499 -15.1560714 16.29103302 -12.45288086 13.58227539 C-11.25193787 12.38436874 -11.25193787 12.38436874 -10.0267334 11.16226196 C-6.45472609 7.57661965 -3.12049377 3.99390305 0 0 Z " fill="#91B0E7" transform="translate(416,410)"/>
<path d="M0 0 C4.39570794 -0.0872253 8.79119271 -0.14046869 13.1875 -0.1875 C14.43337891 -0.21263672 15.67925781 -0.23777344 16.96289062 -0.26367188 C18.16494141 -0.27333984 19.36699219 -0.28300781 20.60546875 -0.29296875 C21.71043701 -0.3086792 22.81540527 -0.32438965 23.95385742 -0.34057617 C29.47844356 0.27710417 33.22328332 3.42070275 36.70548153 7.58767605 C39.55112684 12.89051142 38.77223842 19.15516122 38.68115234 25.02319336 C38.67945832 26.55129937 38.68041299 28.07941025 38.68380737 29.60751343 C38.68552448 33.741696 38.65032204 37.87482788 38.60836363 42.00876689 C38.57078132 46.33420489 38.56732538 50.65966867 38.56021118 54.98524475 C38.54158427 63.16987325 38.49237672 71.35401922 38.43211424 79.53843552 C38.36498177 88.85878752 38.33204321 98.17916291 38.30194163 107.49969661 C38.2392755 126.66674528 38.13256999 145.83331611 38 165 C29.42 165 20.84 165 12 165 C11.99413376 163.15108154 11.98826752 161.30216309 11.98222351 159.3972168 C11.92501882 141.97570535 11.85244554 124.55431777 11.76428509 107.13293457 C11.71935418 98.17636289 11.67993328 89.21983074 11.65356445 80.26318359 C11.63056246 72.45492022 11.59713985 64.64678219 11.55129844 56.83861828 C11.52739587 52.7057377 11.50864769 48.57298104 11.50238609 44.44003296 C11.49632177 40.54610266 11.47627361 36.65248931 11.44572449 32.75867653 C11.43696578 31.3333335 11.43321718 29.90794902 11.43499184 28.48258018 C11.53505467 15.87332762 11.53505467 15.87332762 5.5 5.1875 C4.675 4.465625 3.85 3.74375 3 3 C1.9940865 2.00594868 0.99275915 1.00718879 0 0 Z " fill="#FEFEFE" transform="translate(406,6)"/>
<path d="M0 0 C1.43526283 -0.01073296 1.43526283 -0.01073296 2.89952087 -0.02168274 C6.05264479 -0.03854867 9.20434274 -0.01917878 12.35742188 0.00219727 C14.55407834 0.00136838 16.75073475 -0.00109175 18.9473877 -0.00511169 C23.54730944 -0.00796827 28.1467439 0.00671839 32.74658203 0.03417969 C38.63808627 0.06826168 44.52871926 0.06224262 50.4202652 0.04351711 C54.95509074 0.03294051 59.48971412 0.04189107 64.02452087 0.05690193 C66.19660339 0.06207931 68.36870705 0.06160735 70.54078674 0.05535698 C73.57843303 0.04989697 76.61483886 0.07030603 79.65234375 0.09765625 C80.54706894 0.09113037 81.44179413 0.08460449 82.3636322 0.07788086 C87.95624308 0.16335383 91.02990334 0.97498112 95.32617188 4.63110352 C97.25115848 8.48107672 96.5545514 13.20869231 96.57617188 17.44360352 C96.59679687 18.44198242 96.61742187 19.44036133 96.63867188 20.46899414 C96.68892235 29.89723869 96.68892235 29.89723869 93.32617188 33.63110352 C90.49647527 35.32328749 88.40136011 35.8832531 85.12037659 35.89852905 C84.28910248 35.90705902 83.45782837 35.91558899 82.60136414 35.92437744 C81.69787735 35.92347107 80.79439056 35.9225647 79.86352539 35.92163086 C78.90536926 35.92834808 77.94721313 35.93506531 76.96002197 35.94198608 C73.79165466 35.96098916 70.62349888 35.96489129 67.45507812 35.96704102 C65.25316785 35.97346672 63.05125844 35.98019491 60.84934998 35.98721313 C56.2334495 35.99919125 51.61762391 36.00289334 47.00170898 36.00170898 C41.08546544 36.00150563 35.16970135 36.02882299 29.25357151 36.0632534 C24.7059661 36.08548299 20.15847686 36.08954775 15.61082268 36.08848953 C13.42951745 36.09085085 11.24820927 36.09970408 9.06695747 36.11515427 C6.01703339 36.13473654 2.96815357 36.12900668 -0.08178711 36.11694336 C-0.98324966 36.12818237 -1.88471222 36.13942139 -2.81349182 36.15100098 C-6.96710575 36.10922562 -9.11728106 35.98027191 -12.71083069 33.72573853 C-16.97426628 29.17639919 -16.0108083 23.76313797 -16.11132812 17.81860352 C-16.15708984 16.72483398 -16.20285156 15.63106445 -16.25 14.50415039 C-16.26482422 13.44647461 -16.27964844 12.38879883 -16.29492188 11.29907227 C-16.31997803 10.33251709 -16.34503418 9.36596191 -16.37084961 8.37011719 C-15.54928357 5.14169358 -14.16496792 3.73498146 -11.57939243 1.69000912 C-7.9232404 -0.34168294 -4.08984149 -0.05344573 0 0 Z " fill="#8BD5FC" transform="translate(84.673828125,316.368896484375)"/>
<path d="M0 0 C0.98756287 -0.0087616 1.97512573 -0.01752319 2.99261475 -0.02655029 C6.25333742 -0.04853646 9.51270131 -0.03399354 12.7734375 -0.01708984 C15.04118103 -0.02045818 17.3089228 -0.02531094 19.57666016 -0.03158569 C24.32797443 -0.038956 29.07881852 -0.02824584 33.83007812 -0.00488281 C39.92023137 0.02360437 46.00928293 0.00720135 52.09939575 -0.02274513 C56.78174133 -0.04081342 61.46382575 -0.03506208 66.1461792 -0.02210617 C68.39166392 -0.0187709 70.63717237 -0.02286346 72.88262939 -0.03450394 C76.02135008 -0.04720428 79.15828717 -0.02784536 82.296875 0 C83.22481873 -0.01012115 84.15276245 -0.02024231 85.10882568 -0.03067017 C89.63182482 0.04366363 91.54572629 0.18010398 95.22570801 3.03067017 C97.35429945 5.92709377 97.77129757 7.22583744 97.7421875 10.77197266 C97.73960937 11.72587891 97.73703125 12.67978516 97.734375 13.66259766 C97.70601563 14.64744141 97.67765625 15.63228516 97.6484375 16.64697266 C97.65230469 18.12423828 97.65230469 18.12423828 97.65625 19.63134766 C97.53190494 28.83288209 97.53190494 28.83288209 94.1484375 32.64697266 C91.30859207 34.34879407 89.19854617 34.90006429 85.90467834 34.92112732 C84.64514595 34.93609001 84.64514595 34.93609001 83.36016846 34.95135498 C81.99091217 34.95235199 81.99091217 34.95235199 80.59399414 34.95336914 C79.62608444 34.96169266 78.65817474 34.97001617 77.66093445 34.97859192 C74.46011336 35.00269539 71.25949597 35.01146382 68.05859375 35.01806641 C65.83426349 35.0270313 63.60993386 35.03615312 61.38560486 35.04542542 C56.72263116 35.0619181 52.0597293 35.06961625 47.39672852 35.07250977 C41.41986029 35.07789882 35.44366622 35.11559989 29.46698856 35.16125393 C24.87305733 35.19098311 20.27928939 35.1982324 15.68527031 35.19923592 C13.48162175 35.20344516 11.277973 35.2159075 9.07441902 35.23675346 C5.99319822 35.26358575 2.91355305 35.2588666 -0.16772461 35.24633789 C-1.0785379 35.26117218 -1.9893512 35.27600647 -2.92776489 35.29129028 C-7.4076284 35.23937413 -9.26589988 35.09971927 -12.91636658 32.27772522 C-15.13292588 29.26448041 -15.49358447 27.7872812 -15.515625 24.08447266 C-15.52207031 23.04033203 -15.52851562 21.99619141 -15.53515625 20.92041016 C-15.51582031 19.84017578 -15.49648437 18.75994141 -15.4765625 17.64697266 C-15.49589844 16.56673828 -15.51523438 15.48650391 -15.53515625 14.37353516 C-15.52871094 13.32939453 -15.52226563 12.28525391 -15.515625 11.20947266 C-15.50998535 10.26201172 -15.5043457 9.31455078 -15.49853516 8.33837891 C-13.51034304 0.06749971 -7.13174425 -0.07778649 0 0 Z " fill="#53CC87" transform="translate(83.8515625,379.35302734375)"/>
<path d="M0 0 C0.029729 1.47593628 0.029729 1.47593628 0.06005859 2.98168945 C0.13613987 6.63282839 0.224853 10.28357009 0.31738281 13.93432617 C0.35566221 15.51432451 0.39051697 17.09440969 0.421875 18.67456055 C0.46754876 20.94611645 0.52553784 23.21707509 0.5859375 25.48828125 C0.59748871 26.19463211 0.60903992 26.90098297 0.62094116 27.6287384 C0.73071048 31.27741393 0.92142364 32.88213546 3 36 C3.43209306 39.44368564 3.32421584 42.90711118 3.3125 46.375 C3.32861328 47.32117188 3.34472656 48.26734375 3.36132812 49.2421875 C3.36750707 58.04101042 3.36750707 58.04101042 0 62 C-3.49903617 64.33269078 -4.89862398 64.24608552 -9.03125 64.23046875 C-10.23523438 64.22853516 -11.43921875 64.22660156 -12.6796875 64.22460938 C-13.94039062 64.21236328 -15.20109375 64.20011719 -16.5 64.1875 C-17.72976562 64.18685547 -18.95953125 64.18621094 -20.2265625 64.18554688 C-40.24204595 64.08993151 -40.24204595 64.08993151 -45.125 61.0625 C-48.05977411 57.83424848 -48.12328792 56.00010992 -48.11352539 51.72412109 C-48.11344986 50.6231308 -48.11337433 49.5221405 -48.11329651 48.38778687 C-48.10813522 47.19505157 -48.10297394 46.00231628 -48.09765625 44.7734375 C-48.0962413 43.55548492 -48.09482635 42.33753235 -48.09336853 41.08267212 C-48.08775639 37.1800901 -48.07520179 33.27756477 -48.0625 29.375 C-48.05748657 26.73437583 -48.05292339 24.09375076 -48.04882812 21.453125 C-48.03778301 14.96873055 -48.02103302 8.48436932 -48 2 C-46.68281982 1.97494385 -45.36563965 1.9498877 -44.00854492 1.92407227 C-39.12758438 1.82999118 -34.24676592 1.72977208 -29.3659668 1.62768555 C-27.2523938 1.58433936 -25.13878586 1.54266406 -23.02514648 1.50268555 C-19.98931336 1.44497551 -16.95365611 1.38128299 -13.91796875 1.31640625 C-12.97100632 1.29969376 -12.02404388 1.28298126 -11.04838562 1.26576233 C-10.16769913 1.24581711 -9.28701263 1.22587189 -8.37963867 1.20532227 C-7.60464523 1.18977798 -6.82965179 1.1742337 -6.03117371 1.15821838 C-3.91493714 0.99337402 -2.07863707 0 0 0 Z " fill="#FE9D86" transform="translate(178,412)"/>
<path d="M0 0 C7.10552506 4.07909772 12.05172667 9.56800101 15.5703125 16.95703125 C17.57390983 25.97321921 16.86519986 34.23820406 12.3203125 42.33203125 C8.04799457 48.58449654 2.55708275 52.92999593 -4.6796875 55.33203125 C-14.44733562 56.29205152 -23.65099375 55.92920119 -31.703125 49.7890625 C-37.12565163 44.78981326 -41.35067829 37.95714145 -41.8828125 30.4765625 C-42.02117609 20.64121751 -40.67989295 14.01932186 -34.5625 6.2265625 C-25.12700606 -3.26765858 -12.1254077 -5.51686556 0 0 Z " fill="#3F3D6B" transform="translate(137.6796875,62.66796875)"/>
<path d="M0 0 C0 10.56 0 21.12 0 32 C-0.66 31.67 -1.32 31.34 -2 31 C-3.34272103 30.89701001 -4.69028253 30.85359401 -6.03689575 30.84178162 C-6.88106049 30.8319928 -7.72522522 30.82220398 -8.5949707 30.81211853 C-9.522854 30.80636307 -10.4507373 30.8006076 -11.40673828 30.79467773 C-12.87021194 30.77982834 -12.87021194 30.77982834 -14.36325073 30.76467896 C-17.59891302 30.73300689 -20.83459001 30.70828398 -24.0703125 30.68359375 C-26.30948272 30.66302915 -28.54864901 30.64203282 -30.78781128 30.62062073 C-36.68968533 30.56534904 -42.59159471 30.51596226 -48.49353027 30.46777344 C-54.51264603 30.41759559 -60.53171029 30.36189015 -66.55078125 30.30664062 C-78.36714355 30.19899672 -90.18355049 30.09756562 -102 30 C-102 29.67 -102 29.34 -102 29 C-94.74 29 -87.48 29 -80 29 C-80 20.09 -80 11.18 -80 2 C-77.70820801 1.97494385 -75.41641602 1.9498877 -73.05517578 1.92407227 C-65.49543509 1.84071307 -57.93576393 1.75201251 -50.3761158 1.66066074 C-45.79129595 1.60542224 -41.20646973 1.55200075 -36.62158203 1.50268555 C-32.19952607 1.45505568 -27.77754901 1.40271337 -23.35558701 1.34705925 C-21.66586133 1.32662945 -19.976114 1.30791741 -18.28635025 1.29092598 C-15.92535808 1.26689578 -13.56451567 1.23683944 -11.20361328 1.20532227 C-10.14841492 1.19668907 -10.14841492 1.19668907 -9.07189941 1.18788147 C-5.82438304 1.1383827 -3.06401424 0 0 0 Z " fill="#F89C86" transform="translate(178,350)"/>
<path d="M0 0 C0.07622759 7.41977336 0.12867461 14.83944525 0.16479492 22.25952148 C0.17985705 24.78234633 0.20031077 27.3051451 0.22631836 29.82788086 C0.26281383 33.45953824 0.2797526 37.09084858 0.29296875 40.72265625 C0.30845261 41.84583755 0.32393646 42.96901886 0.33988953 44.12623596 C0.34132843 50.8610266 0.06549691 56.3398302 -4.4296875 61.70703125 C-9.36057631 65.47849485 -13.21406532 67.25673477 -19.43286133 67.22705078 C-21.02394463 67.22682419 -21.02394463 67.22682419 -22.64717102 67.22659302 C-24.34742683 67.21110916 -24.34742683 67.21110916 -26.08203125 67.1953125 C-27.25134689 67.1924826 -28.42066254 67.18965271 -29.62541199 67.18673706 C-33.35454608 67.17555562 -37.08343868 67.15045434 -40.8125 67.125 C-43.34309549 67.11496759 -45.87369474 67.10584219 -48.40429688 67.09765625 C-54.60294677 67.07562292 -60.80145613 67.04216534 -67 67 C-63.12399264 62.36610866 -59.10593175 57.96043439 -54.8269043 53.69750977 C-54.2424202 53.11127335 -53.6579361 52.52503693 -53.05574036 51.92103577 C-51.14771897 50.00865781 -49.23611709 48.09990761 -47.32421875 46.19140625 C-45.98982887 44.8563421 -44.65558742 43.52112959 -43.32148743 42.18577576 C-40.53845585 39.4012761 -37.75363878 36.61857807 -34.9675293 33.8371582 C-31.38833396 30.26369302 -27.81369139 26.68571234 -24.24034405 23.10640049 C-21.49277204 20.35522718 -18.742838 17.60642485 -15.99216652 14.85835075 C-14.67206131 13.53891429 -13.35270311 12.21873001 -12.03409386 10.89779854 C-10.20050413 9.06168578 -8.36376857 7.22878082 -6.52612305 5.39672852 C-5.97810028 4.84668152 -5.43007751 4.29663452 -4.865448 3.72991943 C-1.11426919 0 -1.11426919 0 0 0 Z " fill="#737EC5" transform="translate(417,440)"/>
<path d="M0 0 C3.57051238 2.78247014 6.82390992 5.77816377 10 9 C10.495 9.495 10.495 9.495 11 10 C11.1875 12.9375 11.1875 12.9375 11 16 C9 18 9 18 6.375 18.5625 C1.94348574 17.82391429 0.14367604 15.74749242 -3.08203125 12.7578125 C-8.5332501 7.76178708 -13.64937079 7.46490379 -20.8046875 7.65234375 C-26.91888283 8.31758016 -30.47063621 10.50462208 -34.8125 14.75 C-39.30920435 21.4308179 -41.25771272 27.91644836 -40 36 C-37.55518447 44.00765667 -33.27326019 48.12759625 -26 52 C-21.08551322 54.45724339 -14.29681797 53.71335711 -9.1953125 52.12890625 C-3.97029885 49.70697743 -0.79293329 46.91742621 2.6953125 42.39453125 C4 41 4 41 6.6875 40.375 C9.41418731 41.11194252 10.4490746 41.63279807 12 44 C12.37917153 47.10089597 12.24985445 48.59241621 10.6015625 51.28125 C4.27402773 58.38409536 -3.14613394 63.58734076 -12.87890625 64.2734375 C-21.98831253 64.55365182 -29.36342366 64.58220979 -37 59 C-38.08861328 58.23816406 -38.08861328 58.23816406 -39.19921875 57.4609375 C-44.65543431 53.20488766 -47.38700965 48.32618716 -50 42 C-50.433125 41.030625 -50.86625 40.06125 -51.3125 39.0625 C-53.3192609 30.12329237 -52.38503768 20.82099938 -47.74609375 12.84375 C-36.65591602 -2.86985332 -17.77757273 -10.08280244 0 0 Z " fill="#6263B2" transform="translate(295,37)"/>
<path d="M0 0 C1.66568527 -0.01268921 1.66568527 -0.01268921 3.36502075 -0.02563477 C5.19321854 -0.01652573 5.19321854 -0.01652573 7.05834961 -0.00723267 C8.34144012 -0.01248962 9.62453064 -0.01774658 10.94650269 -0.02316284 C14.4671616 -0.03685185 17.98755709 -0.03153143 21.50822067 -0.02202559 C25.19038357 -0.01443712 28.87252373 -0.02147233 32.5546875 -0.02618408 C38.73856664 -0.03164402 44.92233834 -0.02444383 51.10620117 -0.01016235 C58.25844845 0.0061647 65.41043919 0.00087635 72.56268024 -0.01564157 C78.70033879 -0.02924971 84.83792004 -0.03117942 90.9755888 -0.02332556 C94.64271437 -0.01864531 98.30971931 -0.01803376 101.97683716 -0.02793503 C106.06405871 -0.03819947 110.15083707 -0.02397836 114.23803711 -0.00723267 C115.45683563 -0.01330536 116.67563416 -0.01937805 117.93136597 -0.02563477 C119.59705124 -0.01294556 119.59705124 -0.01294556 121.29638672 0 C122.74651405 0.00169662 122.74651405 0.00169662 124.22593689 0.00342751 C126.64819336 0.38095093 126.64819336 0.38095093 128.45924377 1.74851036 C130.15832108 4.08136177 130.0706398 5.56464131 129.64819336 8.38095093 C128.45924377 10.01339149 128.45924377 10.01339149 126.64819336 11.38095093 C124.22593689 11.75847435 124.22593689 11.75847435 121.29638672 11.76190186 C120.18592987 11.77036133 119.07547302 11.7788208 117.93136597 11.78753662 C116.71256744 11.78146393 115.49376892 11.77539124 114.23803711 11.76913452 C112.95494659 11.77439148 111.67185608 11.77964844 110.34988403 11.7850647 C106.82922512 11.79875371 103.30882963 11.79343328 99.78816605 11.78392744 C96.10600315 11.77633898 92.42386299 11.78337418 88.74169922 11.78808594 C82.55782008 11.79354588 76.37404838 11.78634568 70.19018555 11.77206421 C63.03793827 11.75573716 55.88594753 11.76102551 48.73370647 11.77754343 C42.59604793 11.79115156 36.45846667 11.79308127 30.32079792 11.78522742 C26.65367235 11.78054717 22.98666741 11.77993561 19.31954956 11.78983688 C15.23232801 11.80010133 11.14554965 11.78588021 7.05834961 11.76913452 C5.23015182 11.77824356 5.23015182 11.77824356 3.36502075 11.78753662 C2.2545639 11.77907715 1.14410706 11.77061768 0 11.76190186 C-0.96675156 11.76077078 -1.93350311 11.7596397 -2.92955017 11.75847435 C-5.35180664 11.38095093 -5.35180664 11.38095093 -7.16285706 10.01339149 C-8.86193436 7.68054008 -8.77425308 6.19726055 -8.35180664 3.38095093 C-5.95284157 0.08714609 -3.94674679 0.0046176 0 0 Z " fill="#6465B3" transform="translate(251.351806640625,158.61904907226563)"/>
<path d="M0 0 C1.66568527 -0.01268921 1.66568527 -0.01268921 3.36502075 -0.02563477 C5.19321854 -0.01652573 5.19321854 -0.01652573 7.05834961 -0.00723267 C8.34144012 -0.01248962 9.62453064 -0.01774658 10.94650269 -0.02316284 C14.4671616 -0.03685185 17.98755709 -0.03153143 21.50822067 -0.02202559 C25.19038357 -0.01443712 28.87252373 -0.02147233 32.5546875 -0.02618408 C38.73856664 -0.03164402 44.92233834 -0.02444383 51.10620117 -0.01016235 C58.25844845 0.0061647 65.41043919 0.00087635 72.56268024 -0.01564157 C78.70033879 -0.02924971 84.83792004 -0.03117942 90.9755888 -0.02332556 C94.64271437 -0.01864531 98.30971931 -0.01803376 101.97683716 -0.02793503 C106.06405871 -0.03819947 110.15083707 -0.02397836 114.23803711 -0.00723267 C115.45683563 -0.01330536 116.67563416 -0.01937805 117.93136597 -0.02563477 C119.59705124 -0.01294556 119.59705124 -0.01294556 121.29638672 0 C122.74651405 0.00169662 122.74651405 0.00169662 124.22593689 0.00342751 C126.64819336 0.38095093 126.64819336 0.38095093 128.45924377 1.74851036 C130.15832108 4.08136177 130.0706398 5.56464131 129.64819336 8.38095093 C128.45924377 10.01339149 128.45924377 10.01339149 126.64819336 11.38095093 C124.22593689 11.75847435 124.22593689 11.75847435 121.29638672 11.76190186 C120.18592987 11.77036133 119.07547302 11.7788208 117.93136597 11.78753662 C116.71256744 11.78146393 115.49376892 11.77539124 114.23803711 11.76913452 C112.95494659 11.77439148 111.67185608 11.77964844 110.34988403 11.7850647 C106.82922512 11.79875371 103.30882963 11.79343328 99.78816605 11.78392744 C96.10600315 11.77633898 92.42386299 11.78337418 88.74169922 11.78808594 C82.55782008 11.79354588 76.37404838 11.78634568 70.19018555 11.77206421 C63.03793827 11.75573716 55.88594753 11.76102551 48.73370647 11.77754343 C42.59604793 11.79115156 36.45846667 11.79308127 30.32079792 11.78522742 C26.65367235 11.78054717 22.98666741 11.77993561 19.31954956 11.78983688 C15.23232801 11.80010133 11.14554965 11.78588021 7.05834961 11.76913452 C5.23015182 11.77824356 5.23015182 11.77824356 3.36502075 11.78753662 C2.2545639 11.77907715 1.14410706 11.77061768 0 11.76190186 C-0.96675156 11.76077078 -1.93350311 11.7596397 -2.92955017 11.75847435 C-5.35180664 11.38095093 -5.35180664 11.38095093 -7.16285706 10.01339149 C-8.86193436 7.68054008 -8.77425308 6.19726055 -8.35180664 3.38095093 C-5.95284157 0.08714609 -3.94674679 0.0046176 0 0 Z " fill="#6465B3" transform="translate(251.351806640625,132.61904907226563)"/>
<path d="M0 0 C1.66568527 -0.01268921 1.66568527 -0.01268921 3.36502075 -0.02563477 C5.19321854 -0.01652573 5.19321854 -0.01652573 7.05834961 -0.00723267 C8.34144012 -0.01248962 9.62453064 -0.01774658 10.94650269 -0.02316284 C14.4671616 -0.03685185 17.98755709 -0.03153143 21.50822067 -0.02202559 C25.19038357 -0.01443712 28.87252373 -0.02147233 32.5546875 -0.02618408 C38.73856664 -0.03164402 44.92233834 -0.02444383 51.10620117 -0.01016235 C58.25844845 0.0061647 65.41043919 0.00087635 72.56268024 -0.01564157 C78.70033879 -0.02924971 84.83792004 -0.03117942 90.9755888 -0.02332556 C94.64271437 -0.01864531 98.30971931 -0.01803376 101.97683716 -0.02793503 C106.06405871 -0.03819947 110.15083707 -0.02397836 114.23803711 -0.00723267 C115.45683563 -0.01330536 116.67563416 -0.01937805 117.93136597 -0.02563477 C119.59705124 -0.01294556 119.59705124 -0.01294556 121.29638672 0 C122.74651405 0.00169662 122.74651405 0.00169662 124.22593689 0.00342751 C126.64819336 0.38095093 126.64819336 0.38095093 128.49440002 1.71335411 C129.64819336 3.38095093 129.64819336 3.38095093 129.46069336 6.44345093 C128.64819336 9.38095093 128.64819336 9.38095093 126.64819336 11.38095093 C124.34898472 11.63542652 124.34898472 11.63542652 121.41664124 11.64164734 C119.75301796 11.65227455 119.75301796 11.65227455 118.05578613 11.66311646 C116.83339233 11.66063904 115.61099854 11.65816162 114.3515625 11.65560913 C112.42714577 11.66327553 112.42714577 11.66327553 110.46385193 11.6710968 C106.93905913 11.68451535 103.41437336 11.6850623 99.88955998 11.6825335 C96.94959026 11.68146567 94.00964236 11.68634236 91.06967729 11.69113892 C84.13497667 11.70224409 77.20033022 11.70266593 70.265625 11.69662476 C63.10602503 11.69058366 55.94662152 11.702897 48.78705508 11.72419482 C42.64518003 11.74179506 36.5033676 11.74781467 30.36146826 11.74455708 C26.69096282 11.74274146 23.02059749 11.74540788 19.35011482 11.75927162 C15.25801918 11.77414869 11.16632484 11.76489374 7.07421875 11.75326538 C5.2436644 11.76473099 5.2436644 11.76473099 3.37612915 11.77642822 C1.70827614 11.76590675 1.70827614 11.76590675 0.00672913 11.75517273 C-0.96132125 11.75534047 -1.92937162 11.75550821 -2.92675686 11.75568104 C-5.35180664 11.38095093 -5.35180664 11.38095093 -7.16327763 10.01381207 C-8.86159953 7.68057173 -8.77424499 6.19720657 -8.35180664 3.38095093 C-5.95284157 0.08714609 -3.94674679 0.0046176 0 0 Z " fill="#6465B3" transform="translate(251.351806640625,184.61904907226563)"/>
<path d="M0 0 C0.98424454 -0.00845947 1.96848907 -0.01691895 2.9825592 -0.02563477 C4.06109665 -0.01956207 5.13963409 -0.01348938 6.25085449 -0.00723267 C7.95603493 -0.0151181 7.95603493 -0.0151181 9.69566345 -0.02316284 C13.46354807 -0.03639602 17.23101224 -0.02761268 20.99890137 -0.01748657 C23.61059653 -0.01950634 26.22229115 -0.02241697 28.83398438 -0.02618408 C34.31169209 -0.03164307 39.78927848 -0.02444637 45.26696777 -0.01016235 C51.60125275 0.00616456 57.93524805 0.00087615 64.269526 -0.01564157 C70.36123659 -0.03089137 76.45281868 -0.02928308 82.54454041 -0.02049637 C85.13777202 -0.01849088 87.73101099 -0.0209658 90.32423401 -0.02793503 C93.94450648 -0.03552852 97.56421772 -0.02397406 101.18444824 -0.00723267 C102.80225441 -0.01634171 102.80225441 -0.01634171 104.45274353 -0.02563477 C105.43698807 -0.01717529 106.4212326 -0.00871582 107.43530273 0 C108.29143913 0.00113108 109.14757553 0.00226215 110.02965546 0.00342751 C112.72456829 0.4684159 113.61225748 1.19470288 115.21765137 3.38095093 C115.59265137 6.44345093 115.59265137 6.44345093 115.21765137 9.38095093 C111.99490588 11.52944792 111.1458366 11.63275011 107.43530273 11.64164734 C106.4510582 11.64873215 105.46681366 11.65581696 104.45274353 11.66311646 C103.37420609 11.66063904 102.29566864 11.65816162 101.18444824 11.65560913 C100.04766129 11.66072006 98.91087433 11.66583099 97.73963928 11.6710968 C93.97184016 11.68502781 90.20422322 11.68403353 86.43640137 11.68173218 C83.82470633 11.68561685 81.21301193 11.68995104 78.60131836 11.69471741 C73.12364071 11.70293263 67.64601463 11.70202053 62.16833496 11.69662476 C55.83406229 11.69058125 49.50001154 11.702905 43.16577673 11.72419482 C37.07408028 11.74391755 30.98248782 11.74698677 24.89076233 11.7434597 C22.29752582 11.74397442 19.70428588 11.74924019 17.11106873 11.75927162 C13.49082145 11.7715577 9.87109297 11.76489138 6.25085449 11.75326538 C5.17231705 11.76090912 4.0937796 11.76855286 2.9825592 11.77642822 C1.5061924 11.76590675 1.5061924 11.76590675 0 11.75517273 C-1.2842046 11.75542434 -1.2842046 11.75542434 -2.59435272 11.75568104 C-5.27843694 11.29598769 -6.16456175 10.53818532 -7.78234863 8.38095093 C-8.15734863 5.88095093 -8.15734863 5.88095093 -7.78234863 3.38095093 C-5.4735694 0.30310726 -3.75979111 0.00496721 0 0 Z " fill="#635EAE" transform="translate(70.7823486328125,235.61904907226563)"/>
<path d="M0 0 C1.28003906 -0.02449219 2.56007812 -0.04898437 3.87890625 -0.07421875 C5.11253906 -0.07808594 6.34617188 -0.08195312 7.6171875 -0.0859375 C8.74495605 -0.09415527 9.87272461 -0.10237305 11.03466797 -0.11083984 C14.78650394 0.47899691 16.42949155 1.75397672 19.125 4.375 C20.99130915 8.1076183 20.35298906 12.57970785 20.375 16.6875 C20.395625 17.63818359 20.41625 18.58886719 20.4375 19.56835938 C20.48709388 28.43946487 20.48709388 28.43946487 17.125 32.375 C12.07467311 35.74188459 6.18206081 34.78577901 0.25 34.8125 C-1.03003906 34.84537109 -2.31007812 34.87824219 -3.62890625 34.91210938 C-14.12826814 34.97245054 -14.12826814 34.97245054 -17.1953125 31.97265625 C-20.36694661 27.06768722 -20.09265341 23.29997615 -20.125 17.5625 C-20.145625 16.65951172 -20.16625 15.75652344 -20.1875 14.82617188 C-20.21657247 9.88021735 -20.20145556 6.33099505 -16.875 2.375 C-11.82743243 -0.99004504 -5.92794001 0.00593387 0 0 Z " fill="#FFC96E" transform="translate(160.875,441.625)"/>
<path d="M0 0 C1.26263672 -0.01933594 2.52527344 -0.03867187 3.82617188 -0.05859375 C14.12378283 -0.0042528 14.12378283 -0.0042528 17.90234375 2.4453125 C21.15417558 7.23191488 20.86400932 11.46964134 20.6875 17.125 C20.69716797 18.67380859 20.69716797 18.67380859 20.70703125 20.25390625 C20.64173079 24.85462073 20.56706849 27.79297687 18.1484375 31.78125 C13.14948921 36.19979605 6.60726297 34.93045262 0.25 35 C-1.67682617 35.05607422 -1.67682617 35.05607422 -3.64257812 35.11328125 C-4.88072266 35.12488281 -6.11886719 35.13648438 -7.39453125 35.1484375 C-8.52866455 35.16825684 -9.66279785 35.18807617 -10.83129883 35.20849609 C-14.97244483 34.43058688 -16.4173523 32.95153726 -18.9375 29.625 C-19.58447266 26.93359375 -19.58447266 26.93359375 -19.6015625 24.0625 C-19.60800781 23.01835937 -19.61445312 21.97421875 -19.62109375 20.8984375 C-19.60175781 19.81820313 -19.58242187 18.73796875 -19.5625 17.625 C-19.58183594 16.54476563 -19.60117188 15.46453125 -19.62109375 14.3515625 C-19.59286609 9.77868178 -19.39423548 6.50424253 -17.26953125 2.4140625 C-11.74935416 -0.54987784 -6.15710574 -0.09400161 0 0 Z " fill="#FEC96E" transform="translate(87.9375,441.375)"/>
<path d="M0 0 C0.99272919 -0.00563965 1.98545837 -0.0112793 3.00827026 -0.01708984 C4.10132477 -0.01304138 5.19437927 -0.00899292 6.32055664 -0.00482178 C7.46855743 -0.00832642 8.61655823 -0.01183105 9.79934692 -0.01544189 C13.60986301 -0.02427437 17.42019478 -0.01840462 21.23071289 -0.01165771 C23.86865271 -0.01300393 26.50659228 -0.01494409 29.14453125 -0.01745605 C34.67946383 -0.02109728 40.21434309 -0.01629254 45.74926758 -0.0067749 C52.15336474 0.00410998 58.55733457 0.00058451 64.96142864 -0.01042771 C71.1155892 -0.02058763 77.26969319 -0.01952452 83.42385864 -0.01366425 C86.04582741 -0.01232618 88.66779941 -0.0139809 91.2897644 -0.01862335 C94.94855467 -0.02367926 98.6070974 -0.01599135 102.26586914 -0.00482178 C103.35892365 -0.00887024 104.45197815 -0.0129187 105.57815552 -0.01708984 C107.0672493 -0.00863037 107.0672493 -0.00863037 108.58642578 0 C109.45215714 0.00075405 110.31788849 0.0015081 111.20985413 0.002285 C113.29321289 0.25396729 113.29321289 0.25396729 115.29321289 2.25396729 C115.54321289 5.25396729 115.54321289 5.25396729 115.29321289 8.25396729 C112.78932922 10.75785095 112.00719918 10.50653142 108.54846191 10.5146637 C107.54731857 10.5217485 106.54617523 10.52883331 105.51469421 10.53613281 C103.86108635 10.53241669 103.86108635 10.53241669 102.17407227 10.52862549 C101.0163179 10.53373642 99.85856354 10.53884735 98.66572571 10.54411316 C94.8227528 10.55806109 90.97995816 10.5570486 87.13696289 10.55474854 C85.14845988 10.55765149 83.15995679 10.56055854 81.17145491 10.56415528 C74.91758899 10.57525852 68.66378312 10.57568309 62.40991211 10.56964111 C55.95124192 10.5635974 49.49278937 10.57592037 43.03415632 10.59721118 C37.49441367 10.61480356 31.95474045 10.62083236 26.41497087 10.61757344 C23.10386345 10.61575687 19.79294651 10.6197371 16.4818573 10.63228798 C12.7918497 10.64455859 9.10235232 10.63791715 5.41235352 10.62628174 C3.75874565 10.63774734 3.75874565 10.63774734 2.07173157 10.64944458 C1.07058823 10.64243027 0.06944489 10.63541595 -0.96203613 10.62818909 C-1.83514183 10.62835683 -2.70824753 10.62852457 -3.60781097 10.6286974 C-4.3004731 10.50503646 -4.99313522 10.38137552 -5.70678711 10.25396729 C-7.70678711 7.25396729 -7.70678711 7.25396729 -7.45678711 4.69146729 C-6.09572193 0.26800545 -4.27104012 0.00372007 0 0 Z " fill="#5F5FB0" transform="translate(70.706787109375,208.74603271484375)"/>
<path d="M0 0 C0.88158783 -0.00525696 1.76317566 -0.01051392 2.67147827 -0.01593018 C5.59049106 -0.02915165 8.50896002 -0.02038373 11.42797852 -0.01025391 C13.45435186 -0.0122742 15.48072449 -0.01518527 17.50709534 -0.01895142 C21.75659092 -0.02337783 26.00589746 -0.01693412 30.25537109 -0.00292969 C35.70423931 0.0141514 41.15266389 0.00432974 46.60151577 -0.01364708 C50.78708745 -0.0244856 54.9725539 -0.02103805 59.15812874 -0.0132637 C61.16719681 -0.01126132 63.1762744 -0.01372229 65.18533134 -0.02070236 C67.99360338 -0.02831666 70.80115653 -0.01671235 73.609375 0 C74.85710945 -0.00910904 74.85710945 -0.00910904 76.13005066 -0.0184021 C80.46046823 0.02936864 83.25058204 0.21948186 86.36938477 3.38818359 C86.11377153 5.73130489 85.77667704 8.06661762 85.36938477 10.38818359 C82.06429492 12.04072852 78.37845325 11.54452825 74.74462891 11.54931641 C73.85182724 11.55428131 72.95902557 11.55924622 72.03916931 11.56436157 C69.07761879 11.57899992 66.11612181 11.58578742 63.15454102 11.59130859 C61.1019236 11.59705797 59.04930621 11.60281573 56.99668884 11.60858154 C52.69001006 11.61909582 48.38334997 11.62493592 44.07666016 11.62841797 C38.55036115 11.63390838 33.02430782 11.65794632 27.49808598 11.68638992 C23.25767792 11.70498476 19.01732947 11.71022018 14.77688408 11.71175385 C12.73906547 11.71478725 10.70124807 11.7228388 8.66346931 11.73593903 C5.81663254 11.75293621 2.97040166 11.751135 0.12353516 11.74462891 C-0.72280487 11.75384369 -1.5691449 11.76305847 -2.44113159 11.77255249 C-8.19981029 11.73118853 -8.19981029 11.73118853 -10.34717655 10.0214653 C-11.63061523 8.38818359 -11.63061523 8.38818359 -12.00561523 5.88818359 C-11.01256102 -0.73217786 -5.51798291 -0.04018604 0 0 Z " fill="#6466B3" transform="translate(294.630615234375,371.61181640625)"/>
<path d="M0 0 C1.3392025 -0.00744736 1.3392025 -0.00744736 2.70545959 -0.01504517 C5.66701011 -0.02968351 8.6285071 -0.03647102 11.59008789 -0.04199219 C13.6427053 -0.04774157 15.6953227 -0.05349933 17.74794006 -0.05926514 C22.05461885 -0.06977941 26.36127893 -0.07561952 30.66796875 -0.07910156 C36.19426776 -0.08459197 41.72032108 -0.10862992 47.24654293 -0.13707352 C51.48695098 -0.15566835 55.72729944 -0.16090378 59.96774483 -0.16243744 C62.00556344 -0.16547085 64.04338083 -0.17352239 66.08115959 -0.18662262 C68.92799637 -0.2036198 71.77422725 -0.2018186 74.62109375 -0.1953125 C75.46743378 -0.20452728 76.3137738 -0.21374207 77.1857605 -0.22323608 C82.92381397 -0.18202027 82.92381397 -0.18202027 85.12696171 1.49269485 C86.37524414 3.16113281 86.37524414 3.16113281 86.18774414 6.22363281 C85.37524414 9.16113281 85.37524414 9.16113281 83.37524414 11.16113281 C80.46920427 11.36517124 77.65807281 11.44428183 74.75048828 11.43579102 C73.41128578 11.44345741 73.41128578 11.44345741 72.04502869 11.45127869 C69.08341839 11.46521874 66.12203966 11.4642146 63.16040039 11.46191406 C61.10778211 11.46579861 59.05516464 11.47013277 57.00254822 11.47489929 C52.69584551 11.48237103 48.38922476 11.48206335 44.08251953 11.47680664 C38.55619798 11.47101119 33.03021148 11.48794032 27.50394535 11.51115131 C23.26352467 11.52586421 19.02318513 11.52676368 14.78274345 11.52364159 C12.74493178 11.52415604 10.70711571 11.529417 8.66932869 11.53945351 C5.82246084 11.55175308 2.97625139 11.54506526 0.12939453 11.53344727 C-0.7169455 11.541091 -1.56328552 11.54873474 -2.43527222 11.55661011 C-8.16051949 11.50481491 -8.16051949 11.50481491 -10.37647343 9.86430645 C-11.62475586 8.16113281 -11.62475586 8.16113281 -11.43725586 4.53613281 C-11.16913086 3.42238281 -10.90100586 2.30863281 -10.62475586 1.16113281 C-7.31966601 -0.49141211 -3.63382434 0.00478816 0 0 Z " fill="#6364B3" transform="translate(294.624755859375,336.8388671875)"/>
<path d="M0 0 C0.89294769 -0.00525696 1.78589539 -0.01051392 2.7059021 -0.01593018 C5.66218476 -0.02915094 8.61793046 -0.02038472 11.57421875 -0.01025391 C13.62540796 -0.01227404 15.67659646 -0.01518498 17.7277832 -0.01895142 C22.02855257 -0.02337759 26.32913514 -0.01693423 30.62988281 -0.00292969 C36.1483497 0.01416228 41.66637889 0.00432267 47.18482971 -0.01364708 C51.4209728 -0.02447696 55.65701177 -0.02104222 59.89315796 -0.0132637 C61.92817232 -0.0112595 63.96319607 -0.01372867 65.99819946 -0.02070236 C68.84020096 -0.02830369 71.68148925 -0.01673111 74.5234375 0 C75.36820648 -0.00607269 76.21297546 -0.01214539 77.08334351 -0.0184021 C82.83033067 0.04441876 82.83033067 0.04441876 84.9778595 1.75574303 C86.26171875 3.38818359 86.26171875 3.38818359 86.63671875 5.88818359 C86.19066128 8.86190004 85.57437345 9.5452737 83.26171875 11.38818359 C80.27968694 11.68453974 77.50653224 11.79781141 74.5234375 11.77636719 C73.63048981 11.78162415 72.73754211 11.7868811 71.8175354 11.79229736 C68.86125274 11.80551812 65.90550704 11.7967519 62.94921875 11.78662109 C60.89802954 11.78864123 58.84684104 11.79155216 56.7956543 11.7953186 C52.49488493 11.79974477 48.19430236 11.79330142 43.89355469 11.77929688 C38.3750878 11.76220491 32.85705861 11.77204451 27.33860779 11.79001427 C23.1024647 11.80084415 18.86642573 11.79740941 14.63027954 11.78963089 C12.59526518 11.78762668 10.56024143 11.79009586 8.52523804 11.79706955 C5.68323654 11.80467088 2.84194825 11.79309829 0 11.77636719 C-0.84476898 11.78243988 -1.68953796 11.78851257 -2.55990601 11.79476929 C-8.30689317 11.73194842 -8.30689317 11.73194842 -10.454422 10.02062416 C-11.73828125 8.38818359 -11.73828125 8.38818359 -12.11328125 5.88818359 C-11.11414234 -0.77274247 -5.54091527 -0.03983134 0 0 Z " fill="#6364B3" transform="translate(294.73828125,265.61181640625)"/>
<path d="M0 0 C0.75980164 -0.00807175 1.51960327 -0.01614349 2.3024292 -0.02445984 C3.91302205 -0.03830013 5.52364422 -0.04902254 7.13427734 -0.05688477 C9.5861861 -0.07405635 12.0367316 -0.11793509 14.48828125 -0.16210938 C16.0546776 -0.17224031 17.62108541 -0.18075516 19.1875 -0.1875 C19.91584045 -0.20500809 20.64418091 -0.22251617 21.39459229 -0.24055481 C26.52096389 -0.21893883 29.41949865 0.99840016 33.359375 4.23828125 C34.5076435 6.53481825 34.47498675 7.82141292 34.45703125 10.37109375 C34.45380859 11.17675781 34.45058594 11.98242188 34.44726562 12.8125 C34.43469727 14.07513672 34.43469727 14.07513672 34.421875 15.36328125 C34.41736328 16.21277344 34.41285156 17.06226563 34.40820312 17.9375 C34.39640374 20.03779034 34.37846806 22.13804455 34.359375 24.23828125 C33.79204651 24.07751602 33.22471802 23.91675079 32.64019775 23.75111389 C30.31779842 23.22893294 28.24354633 23.08077895 25.86621094 23.03295898 C24.98559998 23.01301376 24.10498901 22.99306854 23.19769287 22.97251892 C22.25589172 22.95580643 21.31409058 22.93909393 20.34375 22.921875 C19.37278381 22.9010939 18.40181763 22.88031281 17.40142822 22.85890198 C14.30414815 22.79359263 11.20678432 22.73460802 8.109375 22.67578125 C6.00780389 22.63257833 3.9062412 22.58896347 1.8046875 22.54492188 C-3.34366448 22.43793027 -8.49210058 22.33661035 -13.640625 22.23828125 C-13.74907531 19.67463642 -13.82812244 17.11561846 -13.890625 14.55078125 C-13.92414063 13.82955078 -13.95765625 13.10832031 -13.9921875 12.36523438 C-14.06353904 8.45873782 -13.91597219 6.66893791 -11.75 3.28125 C-8.08140798 -0.27184931 -4.86919871 0.04884114 0 0 Z " fill="#FE9B86" transform="translate(143.640625,294.76171875)"/>
<path d="M0 0 C1.20241585 0.00607269 1.20241585 0.00607269 2.42912292 0.01226807 C3.27315674 0.00876343 4.11719055 0.00525879 4.98680115 0.00164795 C7.78609869 -0.00717829 10.58514493 -0.00131657 13.38444519 0.00543213 C15.32496184 0.00408561 17.26547816 0.00214519 19.20599365 -0.00036621 C23.27731023 -0.00331879 27.34853917 0.00098399 31.41984558 0.01031494 C36.64343726 0.02170196 41.86682327 0.01515559 47.09040737 0.00317001 C51.09920811 -0.00405145 55.10795996 -0.0017592 59.11676216 0.0034256 C61.04292386 0.00476169 62.96908996 0.00311577 64.89524651 -0.00153351 C67.58634597 -0.00660257 70.27711092 0.00111721 72.96818542 0.01226807 C73.76777176 0.0082196 74.56735809 0.00417114 75.39117432 0 C79.21476415 0.02940779 81.00447301 0.09847151 84.26335144 2.27105713 C84.64404417 5.25315015 84.84380155 7.3160768 83.25064087 9.93721008 C80.10422443 12.04905057 76.75527331 11.69606293 73.09172058 11.67510986 C72.2589006 11.68197311 71.42608063 11.68883636 70.56802368 11.69590759 C67.81134557 11.71422902 65.0552337 11.71033046 62.29850769 11.70465088 C60.38423476 11.70921024 58.46996347 11.71451508 56.55569458 11.72053528 C52.54159399 11.72947697 48.52769223 11.72703138 44.51359558 11.71710205 C39.36729269 11.70561318 34.22167601 11.72581722 29.07546329 11.75501919 C25.12149692 11.77335834 21.16769566 11.77309326 17.21369743 11.76738167 C15.31626358 11.76722816 13.41881874 11.77329667 11.52142525 11.78567314 C8.868637 11.8005377 6.21712492 11.78993989 3.56437683 11.77276611 C2.77930756 11.78243408 1.99423828 11.79210205 1.18537903 11.80206299 C-2.36525761 11.7538864 -4.37017236 11.54190005 -7.26327515 9.40376282 C-8.73664856 7.27105713 -8.73664856 7.27105713 -8.61164856 4.64605713 C-6.87425095 -0.06973638 -4.6771905 0.03611182 0 0 Z " fill="#655EAD" transform="translate(71.73664855957031,263.72894287109375)"/>
<path d="M0 0 C0.86863678 0.00404846 1.73727356 0.00809692 2.63223267 0.01226807 C3.54614777 0.00876343 4.46006287 0.00525879 5.40167236 0.00164795 C8.43302937 -0.00717937 11.4641544 -0.00131668 14.49551392 0.00543213 C16.59536789 0.00408577 18.69522156 0.00214548 20.79507446 -0.00036621 C25.20013389 -0.00331883 29.60511232 0.00098461 34.01016235 0.01031494 C39.66655423 0.02170952 45.32275633 0.01515079 50.97914124 0.00317001 C55.31645141 -0.00404485 59.65371632 -0.00176237 63.99102783 0.0034256 C66.07710797 0.00476313 68.16319218 0.00311078 70.24926758 -0.00153351 C73.16088806 -0.0065926 76.07219792 0.00110281 78.98379517 0.01226807 C79.85243195 0.0082196 80.72106873 0.00417114 81.61602783 0 C87.57948619 0.04252941 87.57948619 0.04252941 89.80801392 2.27105713 C89.55801392 5.83355713 89.55801392 5.83355713 88.80801392 9.27105713 C85.50292407 10.92360205 81.8170824 10.42740178 78.18325806 10.43218994 C77.29045639 10.43715485 76.39765472 10.44211975 75.47779846 10.44723511 C72.51624794 10.46187346 69.55475096 10.46866096 66.59317017 10.47418213 C64.54055275 10.47993151 62.48793536 10.48568927 60.43531799 10.49145508 C56.12863921 10.50196936 51.82197912 10.50780946 47.51528931 10.5112915 C41.9889903 10.51678191 36.46293697 10.54081986 30.93671513 10.56926346 C26.69630707 10.58785829 22.45595862 10.59309372 18.21551323 10.59462738 C16.17769462 10.59766079 14.13987722 10.60571234 12.10209846 10.61881256 C9.25526169 10.63580974 6.40903081 10.63400854 3.56216431 10.62750244 C2.71582428 10.63671722 1.86948425 10.64593201 0.99749756 10.65542603 C-4.75894285 10.61407814 -4.75894285 10.61407814 -6.91245365 8.90824509 C-8.19198608 7.27105713 -8.19198608 7.27105713 -8.50448608 4.70855713 C-7.83210444 -0.53601967 -4.51964523 0.03223261 0 0 Z " fill="#5F60B1" transform="translate(291.1919860839844,301.72894287109375)"/>
<path d="M0 0 C10.56 0 21.12 0 32 0 C32 8.91 32 17.82 32 27 C21.44 27 10.88 27 0 27 C0 18.09 0 9.18 0 0 Z " fill="#FF526E" transform="translate(98,352)"/>
<path d="M0 0 C2.625 0.4375 2.625 0.4375 4.52734375 2.41796875 C7.12589817 6.15853219 8.95009468 10.0433861 10.8125 14.1875 C11.51253191 15.72477517 12.21426447 17.26127743 12.91796875 18.796875 C13.2224292 19.47202148 13.52688965 20.14716797 13.84057617 20.84277344 C14.519588 22.43955433 14.519588 22.43955433 15.625 23.4375 C15.91221924 22.81182129 16.19943848 22.18614258 16.49536133 21.54150391 C17.80065799 18.71103791 19.11888852 15.88678606 20.4375 13.0625 C20.88931641 12.07765625 21.34113281 11.0928125 21.80664062 10.078125 C22.24814453 9.13710937 22.68964844 8.19609375 23.14453125 7.2265625 C23.54776611 6.35725098 23.95100098 5.48793945 24.36645508 4.59228516 C25.625 2.4375 25.625 2.4375 28.625 0.4375 C31.94740324 0.7616369 33.23276303 1.04526303 35.625 3.4375 C35.32577764 8.66324783 33.77452507 12.95059751 31.53515625 17.61328125 C31.07827675 18.5901313 31.07827675 18.5901313 30.61216736 19.5867157 C29.97184713 20.95092072 29.32705143 22.31303332 28.67797852 23.6730957 C27.68415128 25.75702183 26.70531555 27.84749981 25.72851562 29.93945312 C25.1024243 31.26863545 24.47550046 32.59742601 23.84765625 33.92578125 C23.55488297 34.54971268 23.26210968 35.1736441 22.96046448 35.81648254 C21.71639663 38.41268495 20.67749281 40.38500719 18.625 42.4375 C15.8125 43.0625 15.8125 43.0625 12.625 42.4375 C8.2112241 36.24605877 4.95108043 29.40161313 1.63867188 22.57299805 C0.74347086 20.7366063 -0.17103171 18.91062259 -1.0859375 17.08398438 C-1.653125 15.91802734 -2.2203125 14.75207031 -2.8046875 13.55078125 C-3.32272949 12.49673096 -3.84077148 11.44268066 -4.37451172 10.35668945 C-5.4782035 7.13637645 -5.49028023 5.62148989 -4.375 2.4375 C-2.375 0.4375 -2.375 0.4375 0 0 Z " fill="#6364B2" transform="translate(313.375,58.5625)"/>
<path d="M0 0 C0.99120346 -0.00953201 1.98240692 -0.01906403 3.00364685 -0.02888489 C4.07760208 -0.02797348 5.15155731 -0.02706207 6.25805664 -0.02612305 C7.35791397 -0.03040817 8.4577713 -0.0346933 9.59095764 -0.03910828 C11.92033194 -0.04485926 14.24972419 -0.04534622 16.57910156 -0.04101562 C20.15013174 -0.03785779 23.72033225 -0.06129877 27.29125977 -0.08666992 C29.55102434 -0.08894297 31.81079115 -0.08964638 34.07055664 -0.08862305 C35.14248764 -0.09783279 36.21441864 -0.10704254 37.3188324 -0.11653137 C38.31318802 -0.11030258 39.30754364 -0.10407379 40.33203125 -0.09765625 C41.20758163 -0.09828568 42.08313202 -0.0989151 42.98521423 -0.0995636 C45.23071289 0.2746582 45.23071289 0.2746582 47.04469299 1.60652161 C48.23071289 3.2746582 48.23071289 3.2746582 48.10571289 6.3371582 C47.23071289 9.2746582 47.23071289 9.2746582 44.23071289 11.2746582 C42.07460022 11.54208374 42.07460022 11.54208374 39.54736328 11.56518555 C38.12557518 11.5843251 38.12557518 11.5843251 36.67506409 11.60385132 C35.14220009 11.60718979 35.14220009 11.60718979 33.57836914 11.6105957 C32.52669052 11.6172525 31.4750119 11.6239093 30.39146423 11.63076782 C28.16643016 11.64089666 25.9413657 11.64558477 23.71630859 11.64526367 C20.30979454 11.64963692 16.90457576 11.68595547 13.49829102 11.72387695 C11.33748816 11.72974497 9.17667914 11.73371446 7.01586914 11.7355957 C5.48604149 11.75715225 5.48604149 11.75715225 3.92530823 11.77914429 C-3.10919296 11.73362945 -3.10919296 11.73362945 -6.45117188 9.40991211 C-7.76928711 7.2746582 -7.76928711 7.2746582 -7.64428711 4.6496582 C-6.04660102 0.31308167 -4.31260133 0.02271476 0 0 Z " fill="#6566B4" transform="translate(250.769287109375,210.725341796875)"/>
<path d="M0 0 C0.85428589 -0.00287018 1.70857178 -0.00574036 2.58874512 -0.00869751 C4.39429385 -0.01073831 6.19986469 -0.00520733 8.00537109 0.00732422 C10.77101012 0.02337806 13.53518775 0.00747651 16.30078125 -0.01171875 C18.05469073 -0.00973632 19.8085993 -0.00589265 21.5625 0 C22.39068237 -0.00607269 23.21886475 -0.01214539 24.07214355 -0.0184021 C29.84656407 0.05243164 29.84656407 0.05243164 31.99987793 1.76644897 C33.28125 3.3984375 33.28125 3.3984375 33.65625 5.8984375 C33.21006893 8.87297795 32.59581313 9.55606728 30.28125 11.3984375 C27.30385864 11.69685229 24.54006789 11.81870818 21.5625 11.796875 C20.70821411 11.79974518 19.85392822 11.80261536 18.97375488 11.80557251 C17.16820615 11.80761331 15.36263531 11.80208233 13.55712891 11.78955078 C10.79148988 11.77349694 8.02731225 11.78939849 5.26171875 11.80859375 C3.50780927 11.80661132 1.7539007 11.80276765 0 11.796875 C-0.82818237 11.80294769 -1.65636475 11.80902039 -2.50964355 11.8152771 C-8.28406407 11.74444336 -8.28406407 11.74444336 -10.43737793 10.03042603 C-11.71875 8.3984375 -11.71875 8.3984375 -12.09375 5.8984375 C-11.096668 -0.74877581 -5.53915245 -0.04061614 0 0 Z " fill="#6465B3" transform="translate(254.71875,475.6015625)"/>
<path d="M0 0 C1.25001549 0.00136711 1.25001549 0.00136711 2.52528381 0.00276184 C3.80883507 -0.00366585 3.80883507 -0.00366585 5.11831665 -0.01022339 C6.92982599 -0.01597159 8.74135842 -0.01646335 10.5528717 -0.01213074 C13.32727912 -0.00897331 16.10061793 -0.03241432 18.87489319 -0.05778503 C20.63335538 -0.0600582 22.39182045 -0.06076144 24.15028381 -0.05973816 C24.98160324 -0.06894791 25.81292267 -0.07815765 26.66943359 -0.08764648 C32.45108741 -0.04112609 32.45108741 -0.04112609 34.65505981 1.63540649 C35.90419006 3.30354309 35.90419006 3.30354309 35.77919006 6.36604309 C34.90419006 9.30354309 34.90419006 9.30354309 31.90419006 11.30354309 C29.12184886 11.52358603 26.44200846 11.63155019 23.65809631 11.63948059 C22.85057419 11.64613739 22.04305206 11.65279419 21.21105957 11.65965271 C19.50389381 11.66977325 17.79668853 11.67446991 16.0894928 11.67414856 C13.47953553 11.67852157 10.87126995 11.71484436 8.26161194 11.75276184 C6.60211251 11.75863022 4.94260505 11.76259947 3.28309631 11.76448059 C2.50382278 11.77885162 1.72454926 11.79322266 0.92166138 11.80802917 C-2.6590458 11.77787928 -4.70586507 11.5907838 -7.62730408 9.438797 C-9.09580994 7.30354309 -9.09580994 7.30354309 -8.97080994 4.67854309 C-7.18329646 -0.1732792 -4.79125917 0.05923711 0 0 Z " fill="#6465B3" transform="translate(252.09580993652344,450.6964569091797)"/>
<path d="M0 0 C1.35581932 -0.0049926 1.35581932 -0.0049926 2.73902893 -0.01008606 C4.65487152 -0.01515921 6.57072297 -0.01749427 8.48657227 -0.01733398 C11.42544043 -0.01951938 14.36393277 -0.0376679 17.30273438 -0.05664062 C19.16015496 -0.05957462 21.01757734 -0.06155938 22.875 -0.0625 C23.75836533 -0.06968552 24.64173065 -0.07687103 25.55186462 -0.08427429 C31.77508486 -0.06085264 31.77508486 -0.06085264 34.00390625 2.16796875 C33.42698317 8.74489183 33.42698317 8.74489183 32.00390625 10.16796875 C29.08194778 10.29393169 26.18492893 10.35665443 23.26171875 10.37109375 C21.94275101 10.37964386 21.94275101 10.37964386 20.59713745 10.3883667 C18.73257659 10.39783179 16.86799889 10.40435665 15.00341797 10.40820312 C12.1478153 10.41790451 9.29293341 10.44891155 6.4375 10.48046875 C4.62891054 10.48699889 2.82031591 10.49224932 1.01171875 10.49609375 C0.15538849 10.50844055 -0.70094177 10.52078735 -1.58322144 10.5335083 C-2.38059723 10.5305072 -3.17797302 10.5275061 -3.99951172 10.52441406 C-5.05088821 10.52988251 -5.05088821 10.52988251 -6.12350464 10.53546143 C-8.60079119 10.04929783 -9.51005385 9.18175393 -10.99609375 7.16796875 C-10.33559257 -1.08829604 -7.35257164 0.00924126 0 0 Z " fill="#6061B1" transform="translate(253.99609375,425.83203125)"/>
<path d="M0 0 C1.18335938 0.0009668 1.18335938 0.0009668 2.390625 0.00195312 C3.21046875 0.01806641 4.0303125 0.03417969 4.875 0.05078125 C6.10476563 0.04594727 6.10476563 0.04594727 7.359375 0.04101562 C13.4740295 0.09596759 13.4740295 0.09596759 16.875 2.36328125 C17.53073218 7.49984996 17.53073218 7.49984996 15.609375 10.02978516 C13.49067498 11.65877439 12.39874452 11.74925826 9.75 11.76171875 C8.96109375 11.76558594 8.1721875 11.76945313 7.359375 11.7734375 C6.53953125 11.76183594 5.7196875 11.75023437 4.875 11.73828125 C3.64523437 11.75568359 3.64523437 11.75568359 2.390625 11.7734375 C1.20726562 11.76763672 1.20726562 11.76763672 0 11.76171875 C-0.71929687 11.75833496 -1.43859375 11.75495117 -2.1796875 11.75146484 C-4.68171882 11.25218902 -5.57727956 10.35824035 -7.125 8.36328125 C-7.5 5.86328125 -7.5 5.86328125 -7.125 3.36328125 C-4.95086404 0.55711927 -3.50606318 -0.01453006 0 0 Z " fill="#6667B4" transform="translate(324.125,210.63671875)"/>
<path d="M0 0 C1.01513672 -0.01740234 1.01513672 -0.01740234 2.05078125 -0.03515625 C4.98239445 -0.01780943 7.0079748 0.02919915 9.4453125 1.7421875 C10.96670158 4.09752319 10.91161418 5.63090544 10.5 8.375 C9.4453125 10.0078125 9.4453125 10.0078125 7.5 11.375 C4.89958045 11.67369684 2.59300841 11.79445157 0 11.75 C-0.67675781 11.76160156 -1.35351562 11.77320313 -2.05078125 11.78515625 C-4.98239445 11.76780943 -7.0079748 11.72080085 -9.4453125 10.0078125 C-10.96670158 7.65247681 -10.91161418 6.11909456 -10.5 3.375 C-7.95970498 -0.55775303 -4.23822439 -0.07265528 0 0 Z " fill="#5ACE8D" transform="translate(253.5,336.625)"/>
<path d="M0 0 C1.01513672 -0.01740234 1.01513672 -0.01740234 2.05078125 -0.03515625 C4.98239445 -0.01780943 7.0079748 0.02919915 9.4453125 1.7421875 C10.96670158 4.09752319 10.91161418 5.63090544 10.5 8.375 C9.4453125 10.0078125 9.4453125 10.0078125 7.5 11.375 C4.89958045 11.67369684 2.59300841 11.79445157 0 11.75 C-0.67675781 11.76160156 -1.35351562 11.77320313 -2.05078125 11.78515625 C-4.98239445 11.76780943 -7.0079748 11.72080085 -9.4453125 10.0078125 C-10.96670158 7.65247681 -10.91161418 6.11909456 -10.5 3.375 C-7.95970498 -0.55775303 -4.23822439 -0.07265528 0 0 Z " fill="#5BCF8D" transform="translate(253.5,265.625)"/>
<path d="M0 0 C1.13308594 -0.01675781 2.26617187 -0.03351563 3.43359375 -0.05078125 C6.78575713 0.33842124 8.1286897 1.04612629 10.5625 3.3125 C10.30688677 5.6556213 9.96979228 7.99093403 9.5625 10.3125 C6.54391234 11.82179383 3.43349046 11.53760073 0.125 11.5625 C-0.8969043 11.5934375 -0.8969043 11.5934375 -1.93945312 11.625 C-4.88028263 11.64804274 -6.93274394 11.64999962 -9.41796875 9.98828125 C-10.4375 8.3125 -10.4375 8.3125 -10.3125 5.25 C-8.67306108 -0.25383066 -5.08096997 0.01730183 0 0 Z " fill="#5ACE8D" transform="translate(253.4375,371.6875)"/>
<path d="M0 0 C0.78955078 -0.01224609 1.57910156 -0.02449219 2.39257812 -0.03710938 C4.45057435 -0.04237279 6.50812009 0.06543715 8.5625 0.1875 C9.2225 0.8475 9.8825 1.5075 10.5625 2.1875 C10.3125 5.75 10.3125 5.75 9.5625 9.1875 C6.54391234 10.69679383 3.43349046 10.41260073 0.125 10.4375 C-0.8969043 10.4684375 -0.8969043 10.4684375 -1.93945312 10.5 C-4.88044562 10.52304402 -6.93586518 10.52060917 -9.42578125 8.8671875 C-10.4375 7.1875 -10.4375 7.1875 -10.1875 4.0625 C-8.74336385 -1.47335524 -4.9619572 0.00403083 0 0 Z " fill="#56CE8A" transform="translate(253.4375,301.8125)"/>
</svg>
